 <svg  version="1.0" xmlns="http://www.w3.org/2000/svg"  width="300.000000pt" height="300.000000pt" viewBox="0 0 300.000000 300.000000"  preserveAspectRatio="xMidYMid meet">  <g transform="translate(0.000000,300.000000) scale(0.100000,-0.100000)" fill="#333333" stroke="none"> <path d="M1412 2644 c-92 -46 -115 -123 -62 -209 22 -36 133 -135 150 -135 17 0 128 99 150 135 33 54 37 106 11 149 -26 42 -109 86 -161 86 -20 0 -59 -12 -88 -26z"/> <path d="M772 2445 c-56 -17 -72 -32 -72 -65 0 -57 133 -142 276 -176 100 -24 325 -25 426 -1 43 10 80 22 83 27 12 19 -16 49 -86 96 -84 55 -184 96 -291 118 -93 19 -276 20 -336 1z"/> <path d="M1885 2444 c-177 -39 -399 -167 -370 -214 14 -23 162 -45 300 -44 163 1 245 17 351 70 136 67 171 138 89 179 -54 27 -266 32 -370 9z"/> <path d="M825 2156 c-100 -67 -217 -216 -246 -314 -11 -37 -10 -51 6 -100 33 -105 202 -245 355 -293 137 -43 276 -24 452 61 45 22 94 40 108 40 14 0 63 -18 108 -40 126 -60 204 -82 302 -81 153 0 287 60 416 186 59 58 75 80 89 127 16 49 17 63 6 100 -29 98 -152 255 -249 317 l-48 31 -50 -19 c-131 -49 -312 -52 -481 -9 l-93 24 -92 -24 c-171 -44 -351 -40 -483 9 -27 11 -50 19 -50 19 0 0 -23 -15 -50 -34z m257 -73 c15 -13 18 -32 18 -104 0 -93 -11 -119 -50 -119 -34 0 -50 38 -50 120 0 106 33 148 82 103z m902 -5 c11 -16 16 -46 16 -98 0 -82 -16 -120 -50 -120 -39 0 -50 26 -50 117 0 66 4 91 17 105 22 24 49 23 67 -4z m-1126 -230 c15 -15 16 -181 2 -209 -13 -23 -53 -25 -74 -3 -19 18 -23 173 -6 205 12 22 59 26 78 7z m504 -5 c15 -14 18 -32 18 -119 0 -80 -3 -106 -16 -118 -19 -20 -35 -20 -60 -2 -17 13 -19 27 -19 121 0 94 2 108 19 121 25 18 35 18 58 -3z m334 3 c17 -13 19 -27 19 -121 0 -94 -2 -108 -19 -121 -25 -18 -41 -18 -60 2 -24 23 -23 210 1 236 19 22 33 23 59 4z m524 -5 c17 -32 13 -187 -6 -205 -21 -22 -61 -20 -74 3 -14 28 -13 194 2 209 19 19 66 15 78 -7z"/> <path d="M485 1577 c-42 -100 -45 -334 -7 -479 59 -222 183 -422 357 -577 130 -116 445 -300 612 -358 51 -17 55 -17 105 0 168 58 483 242 613 358 174 155 295 351 357 577 43 156 25 489 -28 509 -10 4 -48 -28 -117 -100 -86 -89 -114 -111 -177 -141 -41 -20 -108 -41 -148 -48 -98 -17 -226 5 -391 67 -68 25 -139 45 -161 45 -22 0 -93 -20 -161 -45 -165 -62 -293 -84 -391 -67 -40 7 -107 28 -148 48 -63 30 -91 52 -176 140 -55 57 -106 104 -113 104 -6 0 -18 -15 -26 -33z m219 -299 c20 -28 22 -210 3 -248 -15 -30 -48 -37 -71 -15 -13 13 -16 39 -16 139 0 81 4 126 12 134 19 19 55 14 72 -10z m1664 10 c8 -8 12 -53 12 -134 0 -100 -3 -126 -16 -139 -23 -22 -56 -15 -71 15 -19 38 -17 220 3 248 17 24 53 29 72 10z m-1004 -74 c13 -12 16 -40 16 -138 0 -132 -5 -146 -52 -146 -22 0 -31 6 -39 28 -15 39 -8 235 10 255 17 21 45 22 65 1z m343 -14 c15 -30 17 -207 3 -244 -7 -20 -17 -26 -38 -26 -47 0 -52 14 -52 146 0 100 3 126 16 139 23 22 56 15 71 -15z m-683 -296 c13 -12 16 -40 16 -139 0 -131 -8 -155 -50 -155 -38 0 -50 37 -50 155 0 84 4 116 16 133 18 26 46 28 68 6z m1020 -6 c12 -17 16 -49 16 -133 0 -118 -12 -155 -50 -155 -42 0 -50 24 -50 155 0 99 3 127 16 139 22 22 50 20 68 -6z m-656 -419 c1 -63 0 -124 -3 -136 -6 -27 -37 -38 -65 -23 -18 10 -20 20 -20 138 0 70 4 132 8 138 12 19 36 22 57 9 18 -11 20 -25 23 -126z m304 117 c4 -6 8 -68 8 -138 0 -116 -2 -128 -19 -138 -27 -14 -37 -13 -55 6 -13 12 -16 40 -16 139 0 115 2 125 21 139 22 15 48 11 61 -8z"/> </g> </svg> 