<?xml version="1.0" encoding="UTF-8"?>
<svg version="1.1" xmlns="http://www.w3.org/2000/svg" width="1536" height="1536">
<path d="M0 0 C506.88 0 1013.76 0 1536 0 C1536 506.88 1536 1013.76 1536 1536 C1029.12 1536 522.24 1536 0 1536 C0 1029.12 0 522.24 0 0 Z " fill="#FEFEFE" transform="translate(0,0)"/>
<path d="M0 0 C5.58012793 3.3381585 9.91329017 8.25257498 14.42578125 12.8671875 C15.33714844 13.78371094 16.24851562 14.70023438 17.1875 15.64453125 C22.29604522 20.81204957 27.22398909 26.07774524 31.92578125 31.6171875 C32.66852295 32.48512939 32.66852295 32.48512939 33.42626953 33.37060547 C34.38549533 34.49254272 35.34345547 35.61556351 36.30004883 36.73974609 C41.33100513 42.6511838 46.4525335 48.45439591 51.69921875 54.17578125 C53.61711332 56.27873583 55.4995417 58.40387906 57.36328125 60.5546875 C67.07063681 71.761795 67.07063681 71.761795 77.87890625 81.875 C79.3420226 83.12032422 80.76548351 84.41284943 82.16015625 85.734375 C95.2701743 98.15224924 110.08098974 108.96177154 125.92578125 117.6171875 C126.75916016 118.07689941 127.59253906 118.53661133 128.45117188 119.01025391 C166.67492386 139.95430903 208.04117281 152.13933844 251.80078125 151.9296875 C252.60081573 151.92786469 253.40085022 151.92604187 254.22512817 151.92416382 C268.95218979 151.86817987 283.35032975 150.79088716 297.92578125 148.6171875 C299.12219238 148.44558105 300.31860352 148.27397461 301.55126953 148.09716797 C331.70906815 143.70708385 360.10841218 135.29041652 388.815979 125.34686279 C390.19880041 124.86861389 391.5823631 124.39250177 392.96673584 123.91876221 C406.74439524 119.20332676 420.2509366 113.82880611 433.77294922 108.43066406 C467.22520258 95.0938877 467.22520258 95.0938877 484.36328125 92.2421875 C485.28069092 92.08210205 486.19810059 91.9220166 487.14331055 91.75708008 C493.70065756 90.67260246 500.28028777 89.80481255 506.92578125 90.6171875 C507.25578125 90.9471875 507.58578125 91.2771875 507.92578125 91.6171875 C509.6719157 91.8741541 511.42325306 92.09573222 513.17578125 92.3046875 C535.3730032 95.66790295 556.26080817 104.81338386 577.01171875 113.0234375 C590.94419067 118.50626623 605.01639133 123.50622271 619.17578125 128.3671875 C620.090784 128.68361206 621.00578674 129.00003662 621.94851685 129.3260498 C639.33674427 135.32692866 656.96269139 140.77212813 675.05078125 144.2421875 C676.06229248 144.44038086 677.07380371 144.63857422 678.1159668 144.84277344 C699.7085991 148.95565578 721.29174586 151.80479319 743.27807617 151.80249023 C745.59247497 151.80466792 747.90638856 151.82287342 750.22070312 151.84179688 C760.59769932 151.88134666 770.65545425 151.07525195 780.92578125 149.6171875 C781.97032471 149.47112061 783.01486816 149.32505371 784.09106445 149.17456055 C796.89452964 147.28443557 809.2119161 144.4897893 821.49609375 140.42041016 C823.9037284 139.62447788 826.32005815 138.86071163 828.73828125 138.09765625 C860.46505095 127.81349868 888.91441889 110.45571846 913.92578125 88.6171875 C915.03373047 87.66005859 915.03373047 87.66005859 916.1640625 86.68359375 C918.09596811 85.00721073 920.01172805 83.31390796 921.92578125 81.6171875 C923.14394531 80.55564453 923.14394531 80.55564453 924.38671875 79.47265625 C928.87049109 75.52074279 933.04032995 71.53813088 936.890625 66.96875 C939.60656569 63.83056133 942.45826567 60.82797621 945.30078125 57.8046875 C949.16086171 53.68359156 952.89444384 49.52810157 956.42578125 45.1171875 C960.44165984 40.10104395 964.73987044 35.40918415 969.14648438 30.73828125 C971.92335271 27.79196516 974.63742922 24.81281985 977.28125 21.74609375 C981.21127693 17.22862778 985.38242468 12.97675861 989.61328125 8.7421875 C990.35900391 7.98421875 991.10472656 7.22625 991.87304688 6.4453125 C992.59556641 5.72085938 993.31808594 4.99640625 994.0625 4.25 C995.03255981 3.27377686 995.03255981 3.27377686 996.0222168 2.27783203 C999.08963905 -0.3981467 1001.23350144 -1.31871252 1005.30078125 -1.6953125 C1009.50851076 -1.3325772 1011.51483893 -0.90394378 1014.92578125 1.6171875 C1020.63404686 9.33910509 1022.65273141 19.94792382 1025.20263672 29.05615234 C1025.85946714 31.38233437 1026.54624661 33.69701617 1027.2421875 36.01171875 C1050.47732152 115.63125866 1041.14671539 207.77756279 982.92578125 372.6171875 C982.46848633 373.57028809 982.01119141 374.52338867 981.54003906 375.50537109 C963.77518785 412.32043533 941.91087364 447.27341306 916.92578125 479.6171875 C916.45156738 480.23561523 915.97735352 480.85404297 915.48876953 481.49121094 C910.28856731 488.26546143 904.99054408 494.8620309 899.19140625 501.140625 C897.29940218 503.20878118 895.45169925 505.30255353 893.61328125 507.41796875 C890.04989259 511.501296 886.38748875 515.48115582 882.67578125 519.4296875 C881.70016235 520.46790649 881.70016235 520.46790649 880.70483398 521.52709961 C873.48269999 529.18424843 866.22511213 536.78210216 858.20703125 543.6171875 C855.73319558 545.78602973 853.33711996 548.02530445 850.93945312 550.27758789 C845.4218767 555.45806105 839.84624797 560.46737157 833.93359375 565.19921875 C831.65706979 567.02930749 829.40671336 568.87857967 827.16796875 570.75390625 C816.3781261 579.77500652 805.2751438 588.31277587 793.92578125 596.6171875 C792.9870668 597.30696686 792.9870668 597.30696686 792.02938843 598.01068115 C780.60832166 606.39172843 768.97194102 614.36984935 757.11328125 622.1171875 C756.28339691 622.66100067 755.45351257 623.20481384 754.59848022 623.7651062 C742.16100025 631.91452051 729.68235531 639.97367789 716.92578125 647.6171875 C715.90049316 648.23319824 714.87520508 648.84920898 713.81884766 649.48388672 C699.22996472 658.23295384 684.55150171 666.8185636 669.68261719 675.08447266 C667.90010011 676.07549659 666.11937087 677.0697461 664.34082031 678.06787109 C621.64586548 701.98517817 577.27758264 722.57132461 531.58117676 740.02758789 C527.79217747 741.47784058 524.04592961 742.98445765 520.328125 744.609375 C506.50475723 750.55484347 495.38110542 751.60595984 481.19165039 745.98251343 C478.86685263 745.02250937 476.55264329 744.03955528 474.23828125 743.0546875 C472.56908068 742.36601735 470.89897489 741.67953769 469.22802734 740.99511719 C465.7934449 739.58325602 462.36582989 738.15611362 458.94287109 736.71630859 C454.26278882 734.75069877 449.56076437 732.8437469 444.8515625 730.94921875 C402.90600266 713.99352659 361.87433602 693.94886034 322.73632812 671.24316406 C319.7186267 669.49734305 316.69025248 667.77108675 313.66015625 666.046875 C291.29638914 653.28746779 269.41274957 639.80139534 247.92578125 625.6171875 C246.63803495 624.7721139 245.35027531 623.92706064 244.0625 623.08203125 C221.83003636 608.43399518 200.12909281 592.9560197 179.60205078 575.99365234 C177.35814813 574.15107688 175.08057127 572.35257069 172.80078125 570.5546875 C162.32219813 562.18235224 152.33619857 553.27071609 142.5390625 544.1171875 C140.91581399 542.60792012 139.28212939 541.11086371 137.64453125 539.6171875 C128.3016146 531.08603474 119.01786884 522.43979061 110.81640625 512.78515625 C108.84001115 510.51883542 106.78902508 508.33140947 104.72680664 506.14331055 C98.53808617 499.55519209 92.86038456 492.70044209 87.37939453 485.51660156 C85.84194505 483.50764003 84.28920776 481.51115728 82.734375 479.515625 C75.43780383 470.1156255 68.51721458 460.52376693 61.92578125 450.6171875 C61.28141113 449.65256592 61.28141113 449.65256592 60.62402344 448.66845703 C46.88662017 428.02106767 34.41982295 406.58548754 22.92578125 384.6171875 C22.45188965 383.71468262 21.97799805 382.81217773 21.48974609 381.88232422 C-2.54272197 335.82639819 -21.34990702 284.57759709 -30.51513672 233.37597656 C-30.95539992 231.20349877 -31.49015916 229.05016576 -32.05883789 226.90771484 C-33.24745543 222.21542701 -33.80274463 217.5085335 -34.328125 212.703125 C-34.43390366 211.77102203 -34.53968231 210.83891907 -34.64866638 209.87857056 C-34.87047548 207.91396393 -35.08967541 205.94906113 -35.30639648 203.98388672 C-35.63353002 201.0210675 -35.96938041 198.05933797 -36.30664062 195.09765625 C-43.06323052 135.25123525 -40.60291373 71.48032751 -20.94921875 14.0546875 C-20.71976563 13.38155518 -20.4903125 12.70842285 -20.25390625 12.01489258 C-18.5197065 7.21813054 -16.41185566 2.39056722 -12.26171875 -0.7578125 C-7.74757775 -2.04756707 -4.29339629 -1.93121002 0 0 Z " fill="#313131" transform="translate(268.07421875,711.3828125)"/>
<path d="M0 0 C19.88758666 9.40120224 42.25352823 15.25260405 64.00390625 18.48046875 C66.18568972 18.81328318 68.35974373 19.19800461 70.52734375 19.61328125 C120.22503812 29.03891751 173.77658494 27.18789181 223 15.9375 C224.59737233 15.58526188 226.19495307 15.23396776 227.79272461 14.88354492 C241.05479344 11.94054939 254.1967333 8.62343465 267.32006836 5.1159668 C270.61755987 4.23529498 273.91705149 3.36241912 277.21679688 2.49023438 C279.33345354 1.92753531 281.44999461 1.36440118 283.56640625 0.80078125 C284.54339981 0.54242996 285.52039337 0.28407867 286.5269928 0.01789856 C287.43662277 -0.2260817 288.34625275 -0.47006195 289.28344727 -0.72143555 C290.07646744 -0.9328569 290.86948761 -1.14427826 291.6865387 -1.36210632 C294.07066128 -2.0415848 294.07066128 -2.0415848 296.56106567 -3.12921143 C303.14620367 -5.64909644 309.70953125 -3.60601731 316.16796875 -1.68359375 C317.46485123 -1.31229843 317.46485123 -1.31229843 318.78793335 -0.9335022 C320.63418606 -0.40441922 322.4791945 0.12902216 324.32302856 0.66647339 C329.16903967 2.07660413 334.02605745 3.44772869 338.8828125 4.8203125 C339.84467972 5.09272263 340.80654694 5.36513275 341.79756165 5.64579773 C362.60919491 11.51595686 383.67770328 16.3341683 405 19.9375 C406.08216797 20.13504883 407.16433594 20.33259766 408.27929688 20.53613281 C428.52283178 24.12962492 448.80998414 24.33609721 469.30383301 24.3705101 C471.46592693 24.37493034 473.62796319 24.3839977 475.79003906 24.39370728 C493.70450977 24.45730014 511.2637054 23.65176957 529 20.9375 C529.78791931 20.81946014 530.57583862 20.70142029 531.38763428 20.57980347 C536.08722263 19.86560796 540.76323036 19.05406635 545.4375 18.1875 C546.46295425 17.99858185 546.46295425 17.99858185 547.50912476 17.80584717 C570.5518633 13.52983412 593.38312762 7.7854965 614.20800781 -3.25439453 C617.64407353 -4.80390101 620.42714157 -4.91598348 624 -4.0625 C637.76414914 1.38399644 649.8487219 10.43336808 661.5625 19.3125 C662.19776611 19.79283691 662.83303223 20.27317383 663.48754883 20.76806641 C675.22076261 29.80805093 686.09523513 39.69762985 696.5246582 50.20141602 C698.32215805 52.00971608 700.13022316 53.80695977 701.93945312 55.60351562 C708.75280567 62.40890749 715.03468617 69.3685819 721 76.9375 C721.9520368 78.07710772 722.90837001 79.21315599 723.87109375 80.34375 C741.39064122 101.29322807 756.26848936 125.41022781 768.06201172 150.00097656 C768.9895953 151.91601899 769.94673215 153.81371792 770.91015625 155.7109375 C780.83129484 175.55321468 783.56719584 197.28215262 776.77490234 218.69189453 C770.71479335 236.25360927 762.72755516 255.01728234 749.51953125 268.3828125 C747.50070395 270.42980948 745.62926465 272.49874197 743.7578125 274.67578125 C739.72498144 279.32047137 735.4215367 283.66303437 731.0625 288 C730.30259766 288.76376953 729.54269531 289.52753906 728.75976562 290.31445312 C724.00316534 295.06292941 719.1072503 299.5703513 714 303.9375 C713.03578125 304.783125 712.0715625 305.62875 711.078125 306.5 C666.11059885 345.25654187 611.32252895 375.48853376 552 383.9375 C551.34418945 384.03369629 550.68837891 384.12989258 550.01269531 384.22900391 C539.70290329 385.72299471 529.40395673 386.51971134 519 386.9375 C517.98292969 386.98003906 516.96585938 387.02257812 515.91796875 387.06640625 C489.40967237 387.59870136 462.90303667 383.11113059 437.55224609 375.67138672 C434.83205268 374.88920751 432.09961925 374.16491416 429.36328125 373.44140625 C424.78330053 372.19748075 420.40352886 370.69781886 416 368.9375 C414.94474121 368.53072021 414.94474121 368.53072021 413.86816406 368.11572266 C401.40513039 363.2910627 389.26558708 357.83096404 377.1875 352.125 C376.45782013 351.78031677 375.72814026 351.43563354 374.97634888 351.08050537 C367.60548132 347.59314973 360.25260093 344.07136497 352.9296875 340.484375 C321.50565526 324.38128205 321.50565526 324.38128205 287.34204102 325.83251953 C283.16605389 327.39879424 279.07810783 329.1330145 275 330.9375 C274.02385742 331.36643555 273.04771484 331.79537109 272.04199219 332.23730469 C261.00751945 337.12958896 250.13932573 342.32300649 239.38745117 347.80712891 C168.27520297 384.03872985 90.20320688 398.99987399 12.8046875 374.30859375 C-15.51569132 364.93452084 -42.4920291 350.85004825 -67 333.9375 C-67.65532715 333.48777832 -68.3106543 333.03805664 -68.98583984 332.57470703 C-112.80330822 302.35221187 -158.38557957 263.36468351 -170.9375 209.5 C-171.14914795 208.60079834 -171.3607959 207.70159668 -171.57885742 206.77514648 C-173.58157478 197.53399986 -173.4268203 189.03313639 -171.4375 179.8125 C-171.26186523 178.99483154 -171.08623047 178.17716309 -170.90527344 177.3347168 C-168.98495697 169.0120007 -165.76215909 161.57067253 -162 153.9375 C-161.36166087 152.60822572 -160.72364225 151.27879748 -160.0859375 149.94921875 C-158.12629142 145.90874185 -156.07915615 141.91757047 -154 137.9375 C-153.68933594 137.33599121 -153.37867188 136.73448242 -153.05859375 136.11474609 C-143.13179301 117.07626371 -130.57760416 98.55708104 -117 81.9375 C-116.28199219 81.03 -115.56398438 80.1225 -114.82421875 79.1875 C-109.78766783 72.88957487 -104.41955972 66.95867945 -98.9140625 61.07421875 C-96.34559533 58.32587521 -93.85621934 55.51503794 -91.375 52.6875 C-87.69606437 48.58585004 -83.78365241 44.8978574 -79.640625 41.26953125 C-76.84621597 38.80168777 -74.14842464 36.24658323 -71.4375 33.6875 C-22.76228866 -11.34362033 -22.76228866 -11.34362033 0 0 Z " fill="#313131" transform="translate(464,420.0625)"/>
<path d="M0 0 C5.27999472 4.97731986 9.7325455 12.50473713 10.1875 19.875 C7.17679356 38.84245054 -6.01645401 50.49995228 -20.66015625 61.4140625 C-49.89994713 82.58210844 -83.25664452 96.06246787 -117.4375 106.8125 C-118.3027832 107.08723145 -119.16806641 107.36196289 -120.05957031 107.64501953 C-149.46412025 116.78392825 -182.32722301 120.11662052 -212.9453125 121.6015625 C-215.43600849 121.65751003 -215.43600849 121.65751003 -217.4375 122.8125 C-219.4231717 122.90903272 -221.41213023 122.94046408 -223.40014648 122.94189453 C-224.65161972 122.94504669 -225.90309296 122.94819885 -227.19248962 122.95144653 C-228.56452469 122.9496565 -229.93655943 122.94760548 -231.30859375 122.9453125 C-232.71102414 122.94598593 -234.11345441 122.94695629 -235.5158844 122.94821167 C-238.45729685 122.94968727 -241.39867896 122.94753882 -244.34008789 122.94287109 C-248.11081329 122.93717913 -251.88146743 122.94045029 -255.65219021 122.94644356 C-258.54922523 122.95005735 -261.44624336 122.94890672 -264.34327888 122.94631577 C-265.73355175 122.94564849 -267.12382614 122.94646797 -268.51409721 122.94879532 C-270.45788417 122.9513346 -272.4016765 122.94677815 -274.34545898 122.94189453 C-276.00519997 122.94070114 -276.00519997 122.94070114 -277.69847107 122.93948364 C-280.4375 122.8125 -280.4375 122.8125 -283.4375 121.8125 C-285.34374929 121.58436181 -287.25508297 121.39778063 -289.16796875 121.234375 C-313.59315954 119.03757681 -337.70593348 115.80840303 -361.625 110.3125 C-363.42227539 109.90402832 -363.42227539 109.90402832 -365.25585938 109.48730469 C-376.23329539 106.86172907 -387.44090218 104.17257954 -395.4375 95.8125 C-396.69905717 92.02782848 -396.95332198 89.81012033 -396.4375 85.8125 C-394.48809898 82.46368572 -392.03753445 79.67350445 -389.4375 76.8125 C-388.45910156 75.7296875 -388.45910156 75.7296875 -387.4609375 74.625 C-343.56204687 28.5887102 -274.63164872 3.54858566 -214.4375 -11.1875 C-213.3964209 -11.44418457 -212.3553418 -11.70086914 -211.28271484 -11.96533203 C-193.46793726 -16.30155898 -175.65021206 -19.1347852 -157.4375 -21.1875 C-156.4484668 -21.30609375 -155.45943359 -21.4246875 -154.44042969 -21.546875 C-108.1355312 -26.98879382 -38.66181058 -29.88492675 0 0 Z " fill="#313131" transform="translate(1170.4375,297.1875)"/>
<path d="M0 0 C0.92151855 -0.00100708 1.84303711 -0.00201416 2.79248047 -0.00305176 C94.84991807 0.06448563 198.11360063 28.927916 278.90380859 98.86328125 C287.05888772 107.26387055 287.05888772 107.26387055 287.375 112.203125 C287.33375 112.96109375 287.2925 113.7190625 287.25 114.5 C287.229375 115.24765625 287.20875 115.9953125 287.1875 116.765625 C285.49341039 121.25496247 281.61591766 124.02908527 277.42382812 126.19238281 C275.46985574 126.9812087 273.51549453 127.63507968 271.5 128.25 C270.72744873 128.49363281 269.95489746 128.73726562 269.15893555 128.98828125 C238.43025156 138.32630541 205.26055957 143.16039288 173.25 145.25 C171.82936095 145.35982496 170.40878607 145.47048362 168.98828125 145.58203125 C131.04293899 148.3482388 92.87976415 145.07496318 55.25 140.25 C54.23357422 140.12512207 53.21714844 140.00024414 52.16992188 139.87158203 C20.19781269 135.91241898 -11.71246503 126.05802257 -40.75 112.25 C-41.68424805 111.80897949 -42.61849609 111.36795898 -43.58105469 110.91357422 C-69.74399645 98.46891131 -106.86051161 80.51724418 -117.6875 51.5625 C-120.06923825 43.03045032 -118.75203536 37.792863 -114.55859375 30.07421875 C-105.79637007 16.39152388 -87.75037098 10.88875762 -72.75 7.25 C-71.59628906 6.96511719 -70.44257813 6.68023437 -69.25390625 6.38671875 C-56.92901927 3.65873582 -44.29290227 2.51867113 -31.75 1.25 C-30.8336377 1.15138672 -29.91727539 1.05277344 -28.97314453 0.95117188 C-19.3327113 0.01294662 -9.67732159 0.00737204 0 0 Z " fill="#313131" transform="translate(474.75,273.75)"/>
<path d="M0 0 C0.82242188 0.62261719 1.64484375 1.24523437 2.4921875 1.88671875 C12.17838612 10.04907615 19.96982771 23.29394 21.7578125 35.8828125 C23.85402687 62.86311999 15.02734669 84.07679638 -2 105 C-5.55794643 109.10902685 -9.23371733 113.08200403 -13 117 C-13.48903809 117.51095215 -13.97807617 118.0219043 -14.48193359 118.54833984 C-20.40380122 124.70175655 -26.47515714 130.4197573 -33.17578125 135.734375 C-35.6823045 137.74514054 -38.11356116 139.82167492 -40.53442383 141.93408203 C-46.0930377 146.75126299 -51.83710811 151.31300077 -57.75 155.6875 C-58.43465332 156.21706299 -59.11930664 156.74662598 -59.82470703 157.29223633 C-64.03021017 160.32954415 -67.47279993 161.93125036 -72.73242188 161.5847168 C-77.22148499 160.42716876 -80.41119839 157.52339441 -83.875 154.5625 C-84.66165039 153.91941895 -85.44830078 153.27633789 -86.25878906 152.61376953 C-87.81982528 151.3343106 -89.37348306 150.0457865 -90.91894531 148.74755859 C-92.63588944 147.3057606 -94.36574626 145.88766511 -96.1171875 144.48828125 C-98.77248131 142.35695492 -101.38871139 140.18495578 -104 138 C-104.50885742 137.58137695 -105.01771484 137.16275391 -105.54199219 136.73144531 C-130.04925926 116.54984971 -158.40855482 89.40044014 -162 56 C-162.99338494 36.7054079 -159.38593407 20.59815962 -146.47265625 5.59375 C-105.06969677 -37.83684256 -44.4688422 -38.38622792 0 0 Z " fill="#313131" transform="translate(838,197)"/>
<path d="M0 0 C6.59408791 4.04399331 10.62958147 8.8294469 12.70096397 16.32555008 C13.56818644 20.77265291 13.4103581 25.28532742 13.3996582 29.80029297 C13.40476913 30.91827271 13.40988007 32.03625244 13.41514587 33.18811035 C13.42901196 36.87285765 13.42808727 40.55741726 13.42578125 44.2421875 C13.42966987 46.81137155 13.43400489 49.38055497 13.43876648 51.94973755 C13.44622234 57.33126178 13.44608096 62.71271368 13.44067383 68.09423828 C13.43463724 74.29669238 13.44694218 80.49891945 13.4682439 86.70133483 C13.48804619 92.68943728 13.49102626 98.67742162 13.48750877 104.66556168 C13.48802112 107.20359963 13.49324263 109.74164128 13.50332069 112.27965927 C13.51570098 115.83358843 13.50888321 119.38699672 13.49731445 122.94091797 C13.50878006 124.50291428 13.50878006 124.50291428 13.52047729 126.09646606 C13.46096534 134.39669642 11.99351387 142.245831 6.74609375 148.92578125 C1.53880849 153.98249441 -4.35061627 155.81368154 -11.5 156.0625 C-19.07329375 155.72432707 -23.9992142 153.7799534 -29.1875 148.25 C-35.13469938 141.36556289 -35.31162807 133.32479651 -35.26318359 124.703125 C-35.26844055 123.54437866 -35.27369751 122.38563232 -35.27911377 121.19177246 C-35.29227159 117.37770947 -35.28359021 113.56406693 -35.2734375 109.75 C-35.27545944 107.09016404 -35.27836769 104.43034063 -35.28213501 101.77050781 C-35.28758032 96.20242799 -35.28043329 90.63446786 -35.26611328 85.06640625 C-35.24978902 78.64520804 -35.25507841 72.22429569 -35.2715925 65.8031044 C-35.28524246 60.27247816 -35.28710995 54.74193756 -35.27927649 49.2112999 C-35.27461916 45.91575421 -35.27511352 42.62037095 -35.28388596 39.3248291 C-35.29152464 35.64864926 -35.27986137 31.97301438 -35.26318359 28.296875 C-35.26925629 27.21611694 -35.27532898 26.13535889 -35.28158569 25.02185059 C-35.22143062 17.84592324 -34.49760462 11.97257456 -30.04296875 6.07421875 C-21.02681759 -2.51513235 -11.84792615 -5.93204488 0 0 Z " fill="#FDFDFD" transform="translate(518.875,1067.5)"/>
<path d="M0 0 C5.693376 5.10834238 10.14233917 9.87985685 10.74300385 17.84329224 C10.81908704 20.89720184 10.82871775 23.94514856 10.81738281 27 C10.82088745 28.16166687 10.82439209 29.32333374 10.82800293 30.52020264 C10.83679513 34.3546753 10.83097981 38.188963 10.82421875 42.0234375 C10.82556612 44.6909203 10.82750428 47.35839751 10.83001709 50.02587891 C10.833651 55.61427814 10.82887277 61.20262444 10.81933594 66.79101562 C10.80845247 73.24283148 10.81197845 79.6945209 10.82298875 86.14633369 C10.83207805 91.69555808 10.83333888 97.2447445 10.82811141 102.79397392 C10.82500073 106.10398653 10.82534808 109.41392703 10.83118439 112.72393799 C10.83626433 116.41500389 10.82851835 120.10582716 10.81738281 123.796875 C10.82143127 124.8879657 10.82547974 125.9790564 10.82965088 127.10321045 C10.77891717 136.18255094 9.05990999 142.81602376 2.55859375 149.3984375 C-4.48827974 154.68677836 -11.84261765 155.55448462 -20.44140625 154.3984375 C-26.24510602 152.87413789 -29.58830747 149.60874447 -33.1171875 144.88671875 C-37.1271787 137.35172055 -37.87894512 130.30888116 -37.82958984 121.87109375 C-37.8348468 120.75282196 -37.84010376 119.63455017 -37.84552002 118.48239136 C-37.85865763 114.80842874 -37.85000371 111.13490406 -37.83984375 107.4609375 C-37.84186627 104.89461179 -37.84477919 102.32828664 -37.84854126 99.76196289 C-37.85295619 94.39235407 -37.84684929 89.02290798 -37.83251953 83.65332031 C-37.81619597 77.46558075 -37.82148561 71.27813785 -37.83799875 65.09040546 C-37.85330847 59.11189529 -37.8516177 53.13352899 -37.84285355 47.15499878 C-37.84085773 44.62254799 -37.84328901 42.09008959 -37.85029221 39.55764771 C-37.85794319 36.01349061 -37.84625061 32.46989661 -37.82958984 28.92578125 C-37.83566254 27.88759247 -37.84173523 26.84940369 -37.84799194 25.77975464 C-37.77777143 17.68307868 -36.71317579 10.04914177 -30.94140625 3.9609375 C-30.0596875 3.00380859 -30.0596875 3.00380859 -29.16015625 2.02734375 C-22.50388271 -4.28098821 -7.63917301 -5.37218651 0 0 Z " fill="#FDFDFD" transform="translate(1041.44140625,1068.6015625)"/>
<path d="M0 0 C6.69340734 3.63921761 9.86988593 8.14657955 12.79971313 15.02801514 C14.1024343 19.87333965 14.04497014 24.4614127 14.04052734 29.45800781 C14.04724457 30.54497452 14.05396179 31.63194122 14.06088257 32.75184631 C14.07985626 36.33981925 14.08378664 39.92760503 14.0859375 43.515625 C14.0923664 46.01658199 14.09909483 48.51753823 14.10610962 51.01849365 C14.11808121 56.26055103 14.12187642 61.50256114 14.12060547 66.74462891 C14.11953813 72.11616881 14.13360295 77.48742078 14.16162109 82.85888672 C14.19502478 89.35624669 14.2087146 95.85334831 14.20738602 102.35079193 C14.20973971 104.82102673 14.21855007 107.29126443 14.23405075 109.76145172 C14.25374454 113.22440419 14.24785823 116.68644552 14.23583984 120.14941406 C14.24707886 121.16066849 14.25831787 122.17192291 14.26989746 123.21382141 C14.19984488 131.19590531 12.16347724 137.54003794 8.0625 144.375 C2.14622511 149.97147625 -4.87889006 152.96542701 -13.03125 152.84375 C-19.63853841 152.0062064 -25.0760752 148.66396364 -29.25 143.5625 C-33.17507341 137.97596086 -35.36136894 133.72829474 -35.39717102 126.81416321 C-35.40432632 125.86245743 -35.41148163 124.91075165 -35.41885376 123.9302063 C-35.42154266 122.89274261 -35.42423157 121.85527893 -35.42700195 120.78637695 C-35.43357315 119.68834244 -35.44014435 118.59030792 -35.44691467 117.45899963 C-35.46663493 113.82292614 -35.47830774 110.18689393 -35.48828125 106.55078125 C-35.49235678 105.30797079 -35.4964323 104.06516033 -35.50063133 102.78468895 C-35.51933754 96.88416072 -35.53390409 90.98364557 -35.5422433 85.08309489 C-35.55200504 78.28954687 -35.57830098 71.49632558 -35.61874419 64.7028926 C-35.65264104 58.80506524 -35.66439636 52.90731714 -35.66844749 47.00938988 C-35.67331274 44.50761894 -35.68492487 42.00585148 -35.70348549 39.50414467 C-35.72788265 35.99769864 -35.72691023 32.49210096 -35.7199707 28.9855957 C-35.73278076 27.95825317 -35.74559082 26.93091064 -35.75878906 25.87243652 C-35.70037056 17.74709613 -33.54156284 12.06724317 -29.125 5.3125 C-20.38657639 -3.04599215 -10.99523485 -4.85962232 0 0 Z " fill="#FCFCFC" transform="translate(864.25,909.4375)"/>
<path d="M0 0 C4.92486978 5.20629092 8.29732593 11.72502984 8.33467102 18.93385315 C8.34182632 19.88273911 8.34898163 20.83162506 8.35635376 21.80926514 C8.35904266 22.84875305 8.36173157 23.88824097 8.36450195 24.95922852 C8.37435875 26.60365181 8.37435875 26.60365181 8.38441467 28.28129578 C8.40416229 31.91799995 8.41581526 35.55466273 8.42578125 39.19140625 C8.42985678 40.43388563 8.4339323 41.67636501 8.43813133 42.95649529 C8.45684854 48.85756294 8.47141051 54.75861747 8.4797433 60.65970761 C8.48949628 67.45325597 8.51576447 74.24647682 8.55624419 81.0399099 C8.5901673 86.93719776 8.60189873 92.83440645 8.60594749 98.73179436 C8.61080984 101.23273879 8.62241368 103.73367981 8.64098549 106.23456001 C8.66541643 109.74330552 8.66440381 113.25120467 8.6574707 116.76000977 C8.67028076 117.78532806 8.68309082 118.81064636 8.69628906 119.86703491 C8.63865999 127.90597726 6.5707896 134.18757569 2.5625 141.125 C-4.39591646 147.53406779 -11.22318156 148.86534451 -20.515625 148.78125 C-26.13284445 147.98259321 -30.82565741 145.29934259 -34.8125 141.3125 C-38.08695344 135.704422 -40.92528851 130.30672886 -40.95967102 123.72911072 C-40.96682632 122.78863892 -40.97398163 121.84816711 -40.98135376 120.87919617 C-40.98404266 119.84905899 -40.98673157 118.81892181 -40.98950195 117.75756836 C-40.99607315 116.67103973 -41.00264435 115.58451111 -41.00941467 114.46505737 C-41.02916175 110.86081881 -41.04081517 107.25662201 -41.05078125 103.65234375 C-41.05485678 102.42089693 -41.0589323 101.18945011 -41.06313133 99.92068672 C-41.08184842 94.0719443 -41.09641039 88.22321826 -41.1047433 82.37445158 C-41.11449599 75.64146242 -41.14076342 68.90880375 -41.18124419 62.17593092 C-41.21516951 56.33095511 -41.22689891 50.486089 -41.23094749 44.64102364 C-41.23580952 42.1624077 -41.24741245 39.68379518 -41.26598549 37.20524406 C-41.29041933 33.72762928 -41.28940329 30.2508683 -41.2824707 26.77319336 C-41.29528076 25.7572258 -41.30809082 24.74125824 -41.32128906 23.69450378 C-41.2518183 14.08789175 -38.56148188 6.23020643 -31.8125 -0.6875 C-22.1831392 -9.38498717 -9.99699865 -5.99819919 0 0 Z " fill="#FCFCFC" transform="translate(698.8125,912.6875)"/>
<path d="M0 0 C6.71679776 4.57963484 9.65134199 9.24767245 12 17 C12.52012896 20.73490415 12.53863164 24.39938592 12.50170898 28.16601562 C12.50711197 29.2340593 12.51251495 30.30210297 12.51808167 31.4025116 C12.53050465 34.90404683 12.51411997 38.40474945 12.49609375 41.90625 C12.49624889 44.3566492 12.49774029 46.80704864 12.50050354 49.25744629 C12.50188467 54.38154001 12.48937697 59.50535285 12.46655273 64.62939453 C12.43816952 71.17940674 12.44090954 77.72895262 12.45364285 84.27899933 C12.46061602 89.33550969 12.45279195 94.39191331 12.44038582 99.44841003 C12.43588727 101.86280406 12.43552047 104.2772096 12.43945122 106.69160461 C12.44237946 110.07263461 12.42577873 113.45303428 12.40405273 116.83398438 C12.40855438 117.82025314 12.41305603 118.80652191 12.41769409 119.82267761 C12.3184055 129.17816639 10.65842352 137.45205996 4 144.3046875 C-2.24164803 149.59545946 -8.76325832 150.79634071 -16.84765625 150.50390625 C-22.98264491 149.52322033 -26.84252759 146.52480069 -30.8125 141.87890625 C-36.61069301 133.83670104 -37.29911134 125.86553278 -37.2746582 116.22875977 C-37.27976913 115.178909 -37.28488007 114.12905823 -37.29014587 113.0473938 C-37.30398556 109.5953391 -37.30308943 106.1434853 -37.30078125 102.69140625 C-37.304671 100.28059312 -37.30900625 97.86978068 -37.31376648 95.45896912 C-37.32121641 90.41297175 -37.32094608 85.36704438 -37.31567383 80.32104492 C-37.30987816 73.86731544 -37.32681882 67.41387284 -37.3500185 60.96019077 C-37.36477692 55.98351884 -37.3656247 51.00691569 -37.36250877 46.03022575 C-37.36302083 43.65127939 -37.36823679 41.27232906 -37.37832069 38.89340401 C-37.39070962 35.56229316 -37.38387846 32.23173727 -37.37231445 28.90063477 C-37.37995819 27.92633011 -37.38760193 26.95202545 -37.39547729 25.94819641 C-37.32359201 16.54066771 -35.27574439 9.54989354 -28.76953125 2.66015625 C-21.03201625 -4.59910175 -9.05458812 -5.29607985 0 0 Z " fill="#FCFCFC" transform="translate(1207,873)"/>
<path d="M0 0 C6.92748325 4.01479143 10.5671149 8.83094922 12.95985985 16.39445305 C14.01878851 20.86296599 13.97068477 25.26594478 13.93481445 29.83813477 C13.93846512 30.88973785 13.94211578 31.94134094 13.94587708 33.02481079 C13.95393615 36.47634386 13.94041166 39.92740061 13.92578125 43.37890625 C13.92526213 45.79068501 13.92578185 48.20246421 13.92729187 50.61424255 C13.92720236 55.6585017 13.91681461 60.70260034 13.89868164 65.74682617 C13.87598331 72.20170341 13.87545495 78.6563466 13.88219929 85.11125278 C13.88554575 90.08788623 13.87889656 95.06446664 13.86907005 100.04109001 C13.8652304 102.42085429 13.8640647 104.80062447 13.8656559 107.18039131 C13.8660281 110.50912787 13.85336309 113.8375679 13.8371582 117.16625977 C13.83963562 118.14258865 13.84211304 119.11891754 13.84466553 120.12483215 C13.77039853 129.71778482 12.06666103 137.57966783 5.5625 144.9375 C-0.72613283 150.56721358 -6.83460402 151.85062627 -15.1640625 151.453125 C-19.91789908 150.70431065 -22.91858471 149.1693243 -26.4375 145.9375 C-27.00082031 145.42960938 -27.56414062 144.92171875 -28.14453125 144.3984375 C-35.26745917 137.0848716 -35.88598048 127.505186 -35.84155273 117.77148438 C-35.84841599 116.7034407 -35.85527924 115.63539703 -35.86235046 114.5349884 C-35.88052812 111.03360387 -35.87679422 107.53267121 -35.87109375 104.03125 C-35.87565938 101.58084977 -35.88096609 99.13045082 -35.88697815 96.68005371 C-35.89589117 91.55601788 -35.89350605 86.43213808 -35.88354492 81.30810547 C-35.87204911 74.75803409 -35.89228611 68.20850133 -35.92146206 61.65850067 C-35.93984925 56.60199594 -35.93952666 51.54561975 -35.93382454 46.48908997 C-35.93367168 44.07468408 -35.93968648 41.66026928 -35.95211601 39.24589539 C-35.96707386 35.86476265 -35.9563132 32.48461845 -35.93920898 29.10351562 C-35.94887695 28.11724686 -35.95854492 27.13097809 -35.96850586 26.11482239 C-35.87918102 17.63783583 -33.94416809 10.3067559 -28.0625 4 C-19.97883628 -3.20057441 -10.00537658 -4.5864283 0 0 Z " fill="#FCFCFC" transform="translate(352.4375,872.0625)"/>
<path d="M0 0 C4.38958297 4.00629298 7.61149849 8.34958991 8.25726891 14.4173317 C8.26062059 15.2638316 8.26397228 16.1103315 8.26742554 16.98248291 C8.27595551 17.96080582 8.28448547 18.93912872 8.29327393 19.94709778 C8.29236755 21.0090184 8.29146118 22.07093903 8.29052734 23.16503906 C8.29724457 24.29248032 8.30396179 25.41992157 8.31088257 26.58152771 C8.32988358 30.30960496 8.33378805 34.03750233 8.3359375 37.765625 C8.3423646 40.36008783 8.34909289 42.95454993 8.35610962 45.54901123 C8.36808813 50.98956286 8.37187561 56.43004326 8.37060547 61.87060547 C8.36940551 68.14237385 8.39048124 74.41379729 8.4220928 80.68547845 C8.45149142 86.7355215 8.45857896 92.78537866 8.45738602 98.83550262 C8.45974223 101.40146034 8.46856685 103.96742075 8.48405075 106.53333282 C8.50371075 110.12830453 8.49787127 113.72239604 8.48583984 117.31738281 C8.49707886 118.37120651 8.50831787 119.42503021 8.51989746 120.51078796 C8.44375567 129.49282232 5.94491555 136.84507186 -0.25390625 143.4921875 C-6.09171879 148.53334106 -12.56427705 149.73396974 -20.13671875 149.4453125 C-26.76424191 148.41456538 -31.61960704 144.22122804 -35.6534338 139.021492 C-40.22099651 132.16457588 -40.43900673 124.55308212 -40.40405273 116.56445312 C-40.41091599 115.45593491 -40.41777924 114.34741669 -40.42485046 113.20530701 C-40.4430586 109.56382209 -40.43928977 105.9227704 -40.43359375 102.28125 C-40.43815795 99.73734396 -40.44346424 97.19343916 -40.44947815 94.64953613 C-40.4583972 89.32701009 -40.456235 84.00464019 -40.44604492 78.68212891 C-40.43456136 72.54885729 -40.44865299 66.41602284 -40.4754414 60.28280878 C-40.50034613 54.3566388 -40.50276374 48.43060363 -40.49632454 42.50437927 C-40.49617151 39.99425021 -40.50220053 37.48411265 -40.51461601 34.97401428 C-40.52954756 31.46086382 -40.51883215 27.94866813 -40.50170898 24.43554688 C-40.51137695 23.40670883 -40.52104492 22.37787079 -40.53100586 21.31785583 C-40.4523494 13.58354543 -38.88047733 7.36731857 -33.78125 1.40625 C-33.0284375 0.7771875 -32.275625 0.148125 -31.5 -0.5 C-30.7471875 -1.1496875 -29.994375 -1.799375 -29.21875 -2.46875 C-20.69248012 -8.3530771 -7.88711799 -5.69070538 0 0 Z " fill="#FDFDFD" transform="translate(864,1227)"/>
<path d="M0 0 C4.5607381 4.00026185 7.58756002 9.40803356 8.28008842 15.43930817 C8.39654453 18.3555892 8.41677293 21.25815603 8.40405273 24.17675781 C8.41091599 25.28177139 8.41777924 26.38678497 8.42485046 27.52528381 C8.44310881 31.16802934 8.43928116 34.81034364 8.43359375 38.453125 C8.4381569 40.99509826 8.44346288 43.53707029 8.44947815 46.07904053 C8.4584081 51.40512687 8.45622355 56.73105726 8.44604492 62.05712891 C8.43458398 68.18918341 8.44861015 74.32079951 8.4754414 80.45279622 C8.50038456 86.37788725 8.50275622 92.30284368 8.49632454 98.2279892 C8.49617169 100.73646523 8.50218558 103.24494984 8.51461601 105.75339508 C8.52958884 109.27114368 8.51880053 112.78794395 8.50170898 116.30566406 C8.51137695 117.33045364 8.52104492 118.35524323 8.53100586 119.41108704 C8.4527473 127.15115064 7.30858704 135.17072798 2.08887386 141.21188736 C-4.50233444 147.41046992 -11.06785899 149.6685415 -20.06640625 149.41015625 C-26.8996294 148.45477885 -31.26741073 144.15139811 -35.67578125 139.13671875 C-40.05247182 132.07462511 -40.43868941 125.57826729 -40.40405273 117.47851562 C-40.41091599 116.34903 -40.41777924 115.21954437 -40.42485046 114.05583191 C-40.44308398 110.3391751 -40.43928609 106.62294174 -40.43359375 102.90625 C-40.43815676 100.31367862 -40.4434627 97.72110845 -40.44947815 95.12854004 C-40.45840221 89.70168554 -40.45622875 84.27499245 -40.44604492 78.84814453 C-40.43456092 72.59047701 -40.44865158 66.33323795 -40.4754414 60.07562685 C-40.50032748 54.03463251 -40.50276694 47.99385755 -40.49632454 41.95280457 C-40.49617137 39.39160957 -40.50221218 36.8304063 -40.51461601 34.26924133 C-40.5295258 30.68633304 -40.51884797 27.10436369 -40.50170898 23.52148438 C-40.51137695 22.46877853 -40.52104492 21.41607269 -40.53100586 20.33146667 C-40.4543793 12.66508373 -38.91516342 7.27955885 -33.78125 1.50390625 C-33.0284375 0.86324219 -32.275625 0.22257812 -31.5 -0.4375 C-30.7471875 -1.09621094 -29.994375 -1.75492188 -29.21875 -2.43359375 C-20.72792861 -8.42799406 -7.90871243 -5.61740322 0 0 Z " fill="#FDFDFD" transform="translate(704,1227)"/>
<path d="M0 0 C8.09753395 4.92203044 12.83829638 9.56088357 15.1875 18.9375 C15.94579151 25.81427047 15.72681138 32.78022693 15.68359375 39.6875 C15.68374896 41.71191459 15.68524163 43.73632948 15.68800354 45.76074219 C15.68938321 49.99036906 15.67690197 54.21965506 15.65405273 58.44921875 C15.62566972 63.84911261 15.6284114 69.24844075 15.64114285 74.64837646 C15.64812427 78.82475549 15.64028265 83.00100561 15.62788582 87.17736816 C15.62339524 89.16751612 15.6230134 91.15767803 15.62695122 93.14782715 C15.65359436 118.45764336 15.65359436 118.45764336 7.046875 127.2421875 C0.54699464 133.16854901 -4.45215942 133.64194795 -13.2109375 133.3828125 C-20.60969568 132.46799858 -24.77634228 128.45807316 -29.48828125 122.9765625 C-33.49219617 116.81124219 -34.25704228 111.68705604 -34.23242188 104.48901367 C-34.24089142 103.56771164 -34.24936096 102.64640961 -34.25808716 101.69718933 C-34.28139114 98.66647343 -34.28248076 95.6362673 -34.28125 92.60546875 C-34.28835632 90.48708394 -34.29605601 88.36870104 -34.30432129 86.25032043 C-34.31775154 81.81453093 -34.31934171 77.37891935 -34.31347656 72.94311523 C-34.30758662 67.27729054 -34.3381503 61.61232454 -34.37859344 55.94666576 C-34.40452927 51.57212274 -34.40734241 47.19778474 -34.40370178 42.82317543 C-34.40538799 40.73531248 -34.41498208 38.64743954 -34.43284607 36.55965233 C-34.60034327 14.56179238 -34.60034327 14.56179238 -26.4609375 5.24609375 C-25.33558594 4.31990234 -25.33558594 4.31990234 -24.1875 3.375 C-23.05441406 2.41400391 -23.05441406 2.41400391 -21.8984375 1.43359375 C-15.91598535 -2.85719122 -6.75556619 -1.88269877 0 0 Z " fill="#FCFCFC" transform="translate(862.8125,587.0625)"/>
<path d="M0 0 C6.94025945 4.06750215 12.04291295 10.46396378 14.45703125 18.12109375 C14.87157186 21.20929119 14.8778344 24.25746256 14.86108398 27.37011719 C14.86794724 28.27030579 14.87481049 29.17049438 14.88188171 30.09796143 C14.90010654 33.05896002 14.8963171 36.01942635 14.890625 38.98046875 C14.89519003 41.05161713 14.90049656 43.122764 14.9065094 45.19390869 C14.91543295 49.53135333 14.9130273 53.8686138 14.90307617 58.20605469 C14.89160881 63.74164431 14.91176788 69.27659389 14.94099331 74.81209946 C14.95941871 79.08974189 14.95904986 83.3672329 14.95335579 87.64490509 C14.95320324 89.68448024 14.95919254 91.72406608 14.97164726 93.76360321 C15.0954324 117.36392331 15.0954324 117.36392331 8.23828125 125.875 C7.48546875 126.47183594 6.73265625 127.06867188 5.95703125 127.68359375 C5.20421875 128.30363281 4.45140625 128.92367187 3.67578125 129.5625 C-2.9346669 134.20610706 -9.71877787 133.91258197 -17.54296875 133.12109375 C-20.81761411 131.99778508 -23.03083233 130.47771696 -25.54296875 128.12109375 C-26.105 127.61320313 -26.66703125 127.1053125 -27.24609375 126.58203125 C-36.68253363 116.91655157 -35.00126768 102.85693704 -34.9765625 90.37109375 C-34.9811304 88.34667792 -34.98643777 86.32226363 -34.9924469 84.29785156 C-35.00135045 80.06829502 -34.9989857 75.83892759 -34.98901367 71.609375 C-34.97751789 66.20940939 -34.99775921 60.81009714 -35.02693081 55.41021729 C-35.04533975 51.23384509 -35.04499115 47.0576282 -35.03929329 42.88122559 C-35.0391407 40.89106326 -35.0451329 38.90088998 -35.05758476 36.9107666 C-35.18074886 14.00530139 -35.18074886 14.00530139 -27.16796875 5.18359375 C-19.92237051 -1.80445953 -9.45457869 -3.26771153 0 0 Z " fill="#FCFCFC" transform="translate(692.54296875,586.87890625)"/>
<path d="M0 0 C7.4324511 4.29537758 11.15992074 9.7198028 13.5625 17.9375 C13.94976795 20.7371749 13.97411725 23.48286289 13.95068359 26.30615234 C13.95594055 27.10080399 13.96119751 27.89545563 13.96661377 28.71418762 C13.97971939 31.31747632 13.97110782 33.92014355 13.9609375 36.5234375 C13.96296135 38.348929 13.96587538 40.1744197 13.96963501 41.99990845 C13.97404594 45.81772594 13.96766859 49.63533217 13.95361328 53.453125 C13.93654651 58.32396008 13.94635451 63.19429822 13.96433067 68.06511497 C13.97522268 71.8331571 13.97169702 75.60108338 13.9639473 79.36912918 C13.96195897 81.16390671 13.96435602 82.95869507 13.97138596 84.75345993 C14.0429155 108.15055104 14.0429155 108.15055104 6.75 115.875 C6.10417969 116.58527344 5.45835938 117.29554688 4.79296875 118.02734375 C-0.1996665 122.3029981 -4.42730684 123.3521963 -10.9375 123.3125 C-12.2059375 123.32023438 -13.474375 123.32796875 -14.78125 123.3359375 C-21.28498338 122.62719732 -25.18155964 119.75343251 -29.4375 114.9375 C-34.50362002 108.27917083 -35.73984632 101.90118652 -35.7121582 93.66650391 C-35.71726913 92.870392 -35.72238007 92.07428009 -35.72764587 91.25404358 C-35.741466 88.64063857 -35.74059076 86.02749955 -35.73828125 83.4140625 C-35.74217252 81.58474633 -35.74650807 79.75543106 -35.75126648 77.92611694 C-35.75871253 74.09817573 -35.75844927 70.27032677 -35.75317383 66.44238281 C-35.74738325 61.55462977 -35.76430811 56.66725617 -35.7875185 51.77956581 C-35.802303 48.00299905 -35.8031211 44.22652267 -35.80000877 40.4499321 C-35.80051968 38.64873885 -35.80571374 36.84754024 -35.81582069 35.04637527 C-35.92617731 12.62930982 -35.92617731 12.62930982 -27.3046875 3.66796875 C-19.53968653 -3.52846521 -9.75166092 -4.4486429 0 0 Z " fill="#FCFCFC" transform="translate(1126.4375,584.0625)"/>
<path d="M0 0 C6.67841058 4.63053859 10.33156459 10.44021574 12 18.38671875 C12.45696623 24.60266753 12.44730346 30.80501788 12.43359375 37.03515625 C12.43816236 38.85682366 12.44346994 40.67848936 12.44947815 42.50015259 C12.45838327 46.30779038 12.4560163 50.11521815 12.44604492 53.92285156 C12.43456543 58.7768473 12.45476436 63.63011441 12.48396206 68.48401451 C12.5024029 72.24352544 12.50201585 76.00286435 12.49632454 79.76240921 C12.49617225 81.55078782 12.50213926 83.33917879 12.51461601 85.12751389 C12.64245809 106.45468897 12.64245809 106.45468897 5.75 115.26171875 C4.8425 115.96296875 3.935 116.66421875 3 117.38671875 C2.45859375 117.84949219 1.9171875 118.31226563 1.359375 118.7890625 C-4.65170816 123.34788817 -10.71090856 123.18239122 -18 122.38671875 C-24.40488682 121.36751565 -27.94199382 117.9062914 -32.23828125 113.2265625 C-38.24741946 103.5399916 -37.45774453 92.54978032 -37.43359375 81.5703125 C-37.43816272 79.74528307 -37.4434704 77.92025536 -37.44947815 76.0952301 C-37.45837498 72.28517632 -37.45602418 68.47533256 -37.44604492 64.6652832 C-37.43454094 59.80103164 -37.45480607 54.93750453 -37.48396206 50.07334805 C-37.50236882 46.30963092 -37.50202302 42.54608615 -37.49632454 38.78233528 C-37.49617197 36.98951257 -37.50216246 35.1966777 -37.51461601 33.40389824 C-37.58557166 21.52005194 -37.11575123 11.94834754 -28.609375 2.89453125 C-20.72695402 -4.4904554 -9.5281839 -4.99178752 0 0 Z " fill="#FCFCFC" transform="translate(433,584.61328125)"/>
<path d="M0 0 C6.31283541 3.76342111 12.39046581 8.39379405 14.80534363 15.59310913 C15.44635695 18.97276557 15.41449178 22.33288847 15.42700195 25.76025391 C15.43685875 26.93672485 15.43685875 26.93672485 15.44691467 28.13696289 C15.4666025 30.7293305 15.47830216 33.3216402 15.48828125 35.9140625 C15.49235678 36.80258282 15.4964323 37.69110313 15.50063133 38.60654831 C15.52147601 43.31240352 15.53578287 48.01822974 15.54516602 52.72412109 C15.55620796 57.56596176 15.59058676 62.40734002 15.63033772 67.24901772 C15.65658529 70.98787239 15.66486521 74.72661841 15.66844749 78.4655571 C15.67329492 80.24920132 15.68485585 82.03284129 15.70348549 83.81639481 C15.91156296 105.06315415 15.91156296 105.06315415 7.875 113.875 C3.04182869 118.53637612 -1.88355513 120.37753192 -8.5625 120.4375 C-16.16209016 120.24530805 -21.20819811 118.59632178 -26.5234375 113.10546875 C-31.9116933 106.44243048 -34.20929365 99.45518598 -34.15405273 90.93603516 C-34.16091599 90.1803978 -34.16777924 89.42476044 -34.17485046 88.64622498 C-34.19300353 86.17280758 -34.18929718 83.70003158 -34.18359375 81.2265625 C-34.18816152 79.49075111 -34.19346886 77.75494152 -34.19947815 76.01913452 C-34.20838704 72.38963452 -34.20601208 68.7603548 -34.19604492 65.13085938 C-34.18456609 60.50204454 -34.2047612 55.87399384 -34.23396206 51.24527931 C-34.25239608 47.66251879 -34.25201719 44.07993889 -34.24632454 40.49714279 C-34.24617216 38.79166976 -34.25214678 37.08618383 -34.26461601 35.38075638 C-34.33072117 24.85727405 -33.78838302 16.20395642 -27.9375 7.125 C-19.88061868 -0.93188132 -11.15768312 -3.16134355 0 0 Z " fill="#FBFBFB" transform="translate(1006.75,463.0625)"/>
<path d="M0 0 C7.47439647 4.62478281 11.63967849 10.74734359 13.875 19.16015625 C14.45613357 25.13170512 14.43933839 31.07131979 14.40625 37.06640625 C14.40895022 38.7993593 14.41283702 40.53231087 14.41784668 42.26525879 C14.42371687 45.88287903 14.41525944 49.50010202 14.39648438 53.11767578 C14.37369611 57.7307727 14.38683261 62.34293844 14.41077423 66.95600128 C14.42529972 70.53020106 14.42059548 74.10418382 14.41026306 77.6783905 C14.40761438 79.37827162 14.41079934 81.07817311 14.42018127 82.7780304 C14.46540789 93.27288319 13.8964124 101.92003355 8.0625 110.97265625 C2.02213172 117.01302453 -2.81890145 119.27157975 -11.375 119.53515625 C-18.78426585 119.4604828 -22.55543809 117.51782636 -27.8359375 112.55078125 C-33.75557627 106.25575075 -35.58372572 99.27836343 -35.51318359 90.8515625 C-35.51844055 90.06345184 -35.52369751 89.27534119 -35.52911377 88.46334839 C-35.54221467 85.88291033 -35.53361126 83.30309954 -35.5234375 80.72265625 C-35.52546109 78.91479373 -35.5283749 77.10693201 -35.53213501 75.29907227 C-35.53654494 71.51994006 -35.53017033 67.74102135 -35.51611328 63.96191406 C-35.4990222 59.13347883 -35.50887053 54.30554398 -35.52683067 49.47712708 C-35.53770457 45.74691034 -35.53420567 42.01681097 -35.5264473 38.28659058 C-35.52445525 36.50690653 -35.52686935 34.72721161 -35.53388596 32.94754028 C-35.54156011 30.45432567 -35.52981377 27.96190587 -35.51318359 25.46875 C-35.51925629 24.74332001 -35.52532898 24.01789001 -35.53158569 23.27047729 C-35.45611728 17.12025111 -34.06978768 11.73523759 -30.29296875 6.734375 C-21.62822503 -1.52020334 -11.67790373 -5.23072771 0 0 Z " fill="#FBFBFB" transform="translate(549.125,463.83984375)"/>
<path d="M0 0 C0.66 0.33 1.32 0.66 2 1 C-0.97 3.97 -3.94 6.94 -7 10 C-7 7 -7 7 -4.625 4.4375 C-3.75875 3.633125 -2.8925 2.82875 -2 2 C-1.34 1.34 -0.68 0.68 0 0 Z " fill="#DDDDDD" transform="translate(985,465)"/>
</svg>
