<?xml version="1.0" encoding="UTF-8"?>
<svg version="1.1" xmlns="http://www.w3.org/2000/svg" width="1536" height="1536">
<path d="M0 0 C1.53084711 1.44781811 3.05182665 2.9061446 4.5625 4.375 C5.39007812 5.14070313 6.21765625 5.90640625 7.0703125 6.6953125 C26.59768696 25.2672191 37.31062597 51.38275161 39.6875 77.9375 C39.77386719 78.85080078 39.86023438 79.76410156 39.94921875 80.70507812 C40.15870555 82.92796584 40.36304684 85.15119349 40.5625 87.375 C41.79492432 87.02103149 41.79492432 87.02103149 43.05224609 86.65991211 C73.14918383 78.07831324 103.45594626 71.14549136 134.5625 67.375 C135.78066406 67.22546875 136.99882813 67.0759375 138.25390625 66.921875 C183.28249029 61.60822724 230.39953017 62.42923167 274.5625 73.375 C275.47966797 73.59913574 276.39683594 73.82327148 277.34179688 74.05419922 C294.76677353 78.41044338 311.07514728 84.54649694 325.5625 95.375 C326.45582031 96.035 327.34914063 96.695 328.26953125 97.375 C345.61338515 110.68842309 354.82306035 128.73112803 359.0625 149.875 C361.69279364 171.40544484 353.30522521 192.79016205 340.25 209.5625 C327.7702253 225.06921192 312.26271372 236.72418932 295.5625 247.375 C298.77249396 250.63326454 302.05830393 253.77880717 305.42163086 256.87792969 C313.04887173 263.92512603 320.48484808 271.16103272 327.84753418 278.48278809 C328.93359298 279.56210766 330.02135425 280.63971733 331.11096191 281.7154541 C338.07621184 288.59898129 344.46713315 295.69288509 350.5625 303.375 C351.4257196 304.40269172 352.29410885 305.42611075 353.171875 306.44140625 C365.70228057 321.05259085 376.30663999 337.1200357 386.5625 353.375 C386.9745166 354.02500977 387.3865332 354.67501953 387.81103516 355.34472656 C411.63688501 393.16965905 429.8246737 435.11149965 420.5625 480.375 C418.7946829 487.77101769 416.71790179 495.08365536 414.5625 502.375 C416.11710937 502.55869141 416.11710937 502.55869141 417.703125 502.74609375 C431.8396149 505.04971204 444.97307219 514.38941662 453.3671875 525.8359375 C473.96255769 556.68479672 479.26655675 599.18629219 483.5625 635.375 C483.6460675 636.06275513 483.72963501 636.75051025 483.81573486 637.45910645 C488.34846838 674.89136192 488.07170273 712.95462672 483.5625 750.375 C483.47528687 751.09927185 483.38807373 751.8235437 483.29821777 752.56976318 C475.55893126 816.01488411 457.37962733 877.85221883 429.90087891 935.55859375 C428.53729552 938.42803884 427.19507479 941.30679266 425.85546875 944.1875 C403.45564225 992.06612556 374.61879261 1038.48476012 340.01171875 1078.5234375 C337.58949086 1081.34357524 335.26018269 1084.22264607 332.9375 1087.125 C329.49308122 1091.36286525 325.84482378 1095.23921539 321.8984375 1099.01171875 C319.94235983 1100.99069365 318.13112985 1103.00371583 316.31640625 1105.109375 C312.43893114 1109.57854949 308.3187279 1113.7664205 304.125 1117.9375 C303.41279297 1118.65357422 302.70058594 1119.36964844 301.96679688 1120.10742188 C297.92729135 1124.13958951 293.79010306 1127.98982473 289.46704102 1131.71557617 C286.48559647 1134.31330449 283.62615082 1137.03702621 280.75 1139.75 C275.75704716 1144.42183901 270.65681243 1148.87300315 265.31640625 1153.1484375 C262.85082681 1155.14188471 260.43699322 1157.18483858 258.03417969 1159.25317383 C250.48699242 1165.73752325 242.63799707 1171.78471061 234.69140625 1177.76953125 C232.6642792 1179.29824541 230.64389563 1180.83543975 228.625 1182.375 C172.27908627 1225.19448082 110.42130376 1261.07702713 47.5625 1293.375 C46.63598633 1293.85259766 45.70947266 1294.33019531 44.75488281 1294.82226562 C8.19260016 1313.60539172 -29.7320821 1329.20334193 -68.125 1343.8125 C-69.28741211 1344.2549707 -70.44982422 1344.69744141 -71.64746094 1345.15332031 C-92.8151882 1353.1111605 -112.58097312 1353.29293641 -133.875 1345 C-135.02750244 1344.56155762 -136.18000488 1344.12311523 -137.36743164 1343.67138672 C-141.06435864 1342.25662079 -144.75207044 1340.81934198 -148.4375 1339.375 C-150.27634766 1338.65763672 -150.27634766 1338.65763672 -152.15234375 1337.92578125 C-200.89086022 1318.8497407 -248.80767969 1297.07906602 -294.4375 1271.375 C-295.48228516 1270.7881543 -296.52707031 1270.20130859 -297.60351562 1269.59667969 C-339.09874567 1246.23595397 -379.86680206 1221.34625561 -418.4375 1193.375 C-419.20497559 1192.8186084 -419.97245117 1192.2622168 -420.76318359 1191.68896484 C-431.15975558 1184.13066326 -441.41375468 1176.42125283 -451.4375 1168.375 C-452.06720703 1167.87145996 -452.69691406 1167.36791992 -453.34570312 1166.84912109 C-467.30049913 1155.67497286 -480.78641438 1144.04487883 -493.85351562 1131.84570312 C-495.42998957 1130.38197331 -497.01751397 1128.93134339 -498.609375 1127.484375 C-509.07464836 1117.95407184 -519.57001077 1108.21129493 -528.7109375 1097.3828125 C-530.54882307 1095.24554286 -532.45503909 1093.17863877 -534.37329102 1091.11352539 C-539.98568365 1085.06508936 -545.31672876 1078.84814109 -550.4375 1072.375 C-550.95183594 1071.72789063 -551.46617187 1071.08078125 -551.99609375 1070.4140625 C-607.63495068 1000.25513436 -650.17829813 918.02023831 -689.4375 741.375 C-689.61756592 739.78945312 -689.61756592 739.78945312 -689.80126953 738.171875 C-693.4509554 704.92764244 -692.6799262 670.61349259 -688.68426514 637.4364624 C-688.43199917 635.32904636 -688.19027719 633.220597 -687.94970703 631.11181641 C-683.49161591 592.60841737 -676.9072305 539.59419531 -645.92578125 513.23828125 C-637.96709054 507.33013887 -629.29058069 503.52841169 -619.4375 502.375 C-619.60354736 501.81329102 -619.76959473 501.25158203 -619.94067383 500.67285156 C-634.03730609 452.46168469 -625.27666249 414.33470351 -601.90234375 370.6015625 C-596.57682101 360.8761688 -590.59040787 351.59236964 -584.4375 342.375 C-583.95039551 341.63958984 -583.46329102 340.90417969 -582.96142578 340.14648438 C-566.7229481 315.70635345 -547.82909773 293.5782507 -527.10351562 272.85571289 C-525.43328905 271.1832835 -523.77127621 269.50296331 -522.109375 267.82226562 C-516.16318245 261.84703037 -510.13677585 256.28280706 -503.484375 251.08862305 C-501.35071593 249.53371235 -501.35071593 249.53371235 -500.4375 247.375 C-501.15292969 246.91351563 -501.86835938 246.45203125 -502.60546875 245.9765625 C-531.40505815 227.12456737 -556.10734079 204.35655188 -563.4375 169.375 C-566.2644722 151.59375455 -561.62920413 131.6508046 -551.28515625 116.828125 C-550.67542969 116.01859375 -550.06570313 115.2090625 -549.4375 114.375 C-548.79683594 113.50359375 -548.15617188 112.6321875 -547.49609375 111.734375 C-529.79447467 88.594098 -502.73946212 79.05745471 -475.4375 72.375 C-474.60541016 72.16891113 -473.77332031 71.96282227 -472.91601562 71.75048828 C-429.88334882 61.45967719 -383.10412765 61.91398404 -339.4375 67.375 C-338.77355225 67.4575 -338.10960449 67.54 -337.42553711 67.625 C-306.22371806 71.53698214 -275.55612997 78.36500758 -245.4375 87.375 C-245.37280518 86.70670166 -245.30811035 86.03840332 -245.24145508 85.34985352 C-243.18089105 64.73183217 -239.58681547 47.50630307 -229.4375 29.375 C-228.88191406 28.37726563 -228.32632812 27.37953125 -227.75390625 26.3515625 C-223.25505444 18.82111031 -217.48880984 12.65107278 -211.4375 6.375 C-210.74140625 5.60414063 -210.0453125 4.83328125 -209.328125 4.0390625 C-152.89225217 -56.5529405 -59.36276325 -52.27604577 0 0 Z " fill="#FDFDFD" transform="translate(870.4375,159.625)"/>
<path d="M0 0 C3.28626981 1.89182769 5.58510133 3.91407485 8.24780273 6.60620117 C8.94263512 7.30384331 8.94263512 7.30384331 9.65150452 8.01557922 C10.62554201 8.99630063 11.59599478 9.98059423 12.56298828 10.96826172 C14.01869075 12.45491086 15.48458772 13.93082456 16.95288086 15.4050293 C22.20189674 20.69725337 27.2783903 26.09314368 32.09545898 31.78198242 C32.82913696 32.6408606 32.82913696 32.6408606 33.57763672 33.51708984 C34.52601695 34.62822415 35.47315224 35.74042244 36.41894531 36.85375977 C41.69610783 43.06208 47.10362659 49.12372236 52.63452148 55.10620117 C56.52097674 59.33195014 60.28121937 63.66536954 64.01733398 68.02416992 C67.73735514 72.30651986 71.52939506 76.20378345 75.86499023 79.86010742 C78.49953803 82.13015561 81.00421339 84.51968098 83.53295898 86.90698242 C107.78628175 109.3696867 137.81536277 127.20153245 169.09545898 137.78198242 C169.85729492 138.04414551 170.61913086 138.30630859 171.40405273 138.57641602 C184.98512113 143.20657911 198.88987567 147.24059402 213.22583008 148.52490234 C215.09545898 148.78198242 215.09545898 148.78198242 217.09545898 149.78198242 C228.70012372 151.63331361 240.23695363 152.15069729 251.97045898 152.09448242 C252.77049347 152.09265961 253.57052795 152.09083679 254.39480591 152.08895874 C269.12633311 152.03295781 283.51296255 150.92754212 298.09545898 148.78198242 C299.23869629 148.62632812 300.38193359 148.47067383 301.55981445 148.31030273 C329.50191559 144.47338546 356.43940073 136.8604578 383.15795898 127.96948242 C383.83315582 127.74500427 384.50835266 127.52052612 385.20401001 127.28924561 C392.55116377 124.83089182 399.7621994 122.15800377 406.890625 119.11914062 C413.54005902 116.34478623 420.29812763 113.84022585 427.03295898 111.28198242 C429.23606115 110.44309863 431.43896369 109.60369244 433.64183044 108.76419067 C435.08063086 108.21616012 436.51964474 107.66868961 437.95887756 107.12179565 C442.33294186 105.45886647 446.69608088 103.7697864 451.05639648 102.07104492 C468.43068108 95.38977033 488.22244784 88.94759629 507.09545898 90.78198242 C507.42545898 91.11198242 507.75545898 91.44198242 508.09545898 91.78198242 C511.09298379 92.2931882 514.10126656 92.68288234 517.11499023 93.08666992 C526.99054515 94.66413398 536.40768935 97.75776584 545.78295898 101.15698242 C546.99081055 101.59051025 548.19866211 102.02403809 549.44311523 102.47070312 C557.89856224 105.5262267 566.24983369 108.81216155 574.5909729 112.16479492 C659.69551126 146.32944129 755.0144976 170.20848089 843.26147461 133.0090332 C869.38796396 121.69685751 892.66551624 107.49341691 914.09545898 88.78198242 C915.2034082 87.82485352 915.2034082 87.82485352 916.33374023 86.84838867 C918.26564584 85.17200565 920.18140579 83.47870288 922.09545898 81.78198242 C923.31362305 80.72043945 923.31362305 80.72043945 924.55639648 79.63745117 C929.04016882 75.68553772 933.21000769 71.70292581 937.06030273 67.13354492 C939.77624343 63.99535625 942.6279434 60.99277113 945.47045898 57.96948242 C949.33053944 53.84838648 953.06412157 49.6928965 956.59545898 45.28198242 C960.61133758 40.26583887 964.90954817 35.57397907 969.31616211 30.90307617 C972.09303045 27.95676008 974.80710695 24.97761477 977.45092773 21.91088867 C981.38095467 17.3934227 985.55210241 13.14155353 989.78295898 8.90698242 C990.52868164 8.14901367 991.2744043 7.39104492 992.04272461 6.61010742 C992.76524414 5.8856543 993.48776367 5.16120117 994.23217773 4.41479492 C995.20223755 3.43857178 995.20223755 3.43857178 996.19189453 2.44262695 C999.25931679 -0.23335178 1001.40317917 -1.1539176 1005.47045898 -1.53051758 C1009.67818849 -1.16778228 1011.68451666 -0.73914886 1015.09545898 1.78198242 C1020.80372459 9.50390001 1022.82240915 20.11271874 1025.37231445 29.22094727 C1026.02914488 31.54712929 1026.71592434 33.86181109 1027.41186523 36.17651367 C1042.45410375 87.72156217 1042.42221934 145.93646958 1036.09545898 198.78198242 C1035.9332878 200.16543872 1035.77117933 201.54890237 1035.60913086 202.93237305 C1032.80904385 226.59984093 1032.80904385 226.59984093 1029.86743164 237.77612305 C1029.06476271 240.90150566 1028.37046648 244.03567392 1027.70092773 247.19213867 C1024.99700238 259.90636101 1021.9331601 272.26743947 1017.80688477 284.59106445 C1016.38657899 288.96506036 1015.1506095 293.3969049 1013.91943359 297.82739258 C1012.64137944 302.30143225 1011.0340321 306.56776876 1009.27368164 310.87353516 C1007.90379917 314.25509544 1006.59237288 317.65797421 1005.28295898 321.06323242 C998.50120239 338.62010404 991.29538919 355.82856381 983.09545898 372.78198242 C982.63961426 373.73073242 982.18376953 374.67948242 981.71411133 375.65698242 C968.60889551 402.82000621 953.26265432 428.98121867 936.09545898 453.78198242 C935.65669434 454.41620117 935.21792969 455.05041992 934.76586914 455.70385742 C925.41823877 469.17791922 915.61659427 482.19450306 905.09545898 494.78198242 C904.66571777 495.29809082 904.23597656 495.81419922 903.79321289 496.34594727 C889.52440876 513.43076136 874.22594404 530.55137968 857.20483398 544.95385742 C854.90896413 546.9436113 852.692204 549.00458796 850.47265625 551.07861328 C845.09710695 556.09998682 839.62930382 560.91040201 833.88842773 565.51635742 C831.39280035 567.54078244 828.94858372 569.61450629 826.51489258 571.71264648 C819.31962409 577.90000893 811.82629376 583.60995565 804.18481445 589.23266602 C802.18348357 590.71670969 800.20205485 592.22366705 798.22436523 593.73901367 C780.81255998 606.96615047 762.36328609 618.78519258 744.09545898 630.78198242 C743.50148315 631.17230652 742.90750732 631.56263062 742.29553223 631.96478271 C718.77094352 647.40575316 694.3778375 661.65635679 669.77172852 675.29760742 C668.0230486 676.26750105 666.27652561 677.24129655 664.5324707 678.21948242 C621.83061956 702.1422702 577.45541394 722.73300483 531.75085449 740.19238281 C527.9618552 741.6426355 524.21560735 743.14925257 520.49780273 744.77416992 C506.67443496 750.71963839 495.55078315 751.77075476 481.36132812 746.14730835 C479.03653037 745.18730429 476.72232103 744.2043502 474.40795898 743.21948242 C472.73875841 742.53081227 471.06865262 741.84433261 469.39770508 741.15991211 C465.96312263 739.74805094 462.53550763 738.32090854 459.11254883 736.88110352 C454.43246656 734.91549369 449.7304421 733.00854182 445.02124023 731.11401367 C403.0756804 714.15832151 362.04401376 694.11365526 322.90600586 671.40795898 C319.88830443 669.66213797 316.85993021 667.93588167 313.82983398 666.21166992 C292.5199262 654.05307002 271.57231531 641.29956505 251.09545898 627.78198242 C249.86883545 626.97446533 249.86883545 626.97446533 248.61743164 626.15063477 C221.49114463 608.26976875 194.87727351 589.52132344 170.16967773 568.38745117 C167.39846743 566.02334055 164.56618709 563.74354284 161.72045898 561.46948242 C155.1474759 556.12115994 149.05007028 550.28044947 142.89282227 544.46606445 C140.32343055 542.05861213 137.7085957 539.70439458 135.09545898 537.34448242 C125.90628247 528.93868631 116.78352186 520.24002899 108.74780273 510.71166992 C106.67987267 508.29664049 104.50938464 505.98632518 102.34545898 503.65698242 C97.10260586 497.90012409 92.3033038 491.86146251 87.5637207 485.68725586 C86.06595874 483.74370176 84.55264638 481.81306878 83.03686523 479.88354492 C57.14953635 446.73689095 35.92965138 410.3023802 17.09545898 372.78198242 C16.6589502 371.91831055 16.22244141 371.05463867 15.77270508 370.16479492 C5.82394156 350.35896156 -2.61605047 329.36403619 -9.65844727 308.35229492 C-10.63789219 305.54598565 -11.69873424 302.84341388 -12.83813477 300.10229492 C-15.15619866 294.36548027 -16.79321564 288.49944888 -18.40454102 282.53198242 C-19.01598829 280.29746181 -19.62796258 278.06308534 -20.24047852 275.82885742 C-20.67312012 274.24427734 -20.67312012 274.24427734 -21.11450195 272.62768555 C-21.73795613 270.38201747 -22.38303253 268.14977997 -23.06860352 265.92260742 C-26.29266858 255.38541916 -28.23392255 244.57753229 -30.28198242 233.76293945 C-30.75304878 231.50736288 -31.30644923 229.26877677 -31.89794922 227.04174805 C-33.08280872 222.3603995 -33.63431945 217.66187186 -34.15844727 212.86791992 C-34.26422592 211.93581696 -34.37000458 211.00371399 -34.47898865 210.04336548 C-34.70079775 208.07875885 -34.91999768 206.11385605 -35.13671875 204.14868164 C-35.46385229 201.18586242 -35.79970268 198.22413289 -36.13696289 195.26245117 C-42.89355279 135.41603017 -40.43323599 71.64512244 -20.77954102 14.21948242 C-20.55008789 13.5463501 -20.32063477 12.87321777 -20.08422852 12.1796875 C-18.35002876 7.38292547 -16.24217792 2.55536214 -12.09204102 -0.59301758 C-7.75540625 -1.83205608 -4.16107968 -1.74494633 0 0 Z " fill="#313131" transform="translate(267.904541015625,711.218017578125)"/>
<path d="M0 0 C8.71279025 4.09206915 17.29461626 7.26349891 26.5625 9.8125 C27.26600586 10.01294922 27.96951172 10.21339844 28.69433594 10.41992188 C42.48588531 14.34290579 56.44122572 17.34649818 70.5625 19.8125 C71.65949219 20.01294922 72.75648438 20.21339844 73.88671875 20.41992188 C93.59798534 23.87903368 113.33974813 24.21010909 133.29988861 24.2455101 C135.33612235 24.24991588 137.37229391 24.25897366 139.4085083 24.26870728 C167.34897102 24.35193126 195.28637018 22.09925395 222.5625 15.8125 C224.39035034 15.3956897 224.39035034 15.3956897 226.25512695 14.97045898 C244.54377296 10.78727873 262.74160029 6.36036876 280.8125 1.3125 C281.99146347 0.98378906 281.99146347 0.98378906 283.19424438 0.6484375 C291.05935874 -1.29597812 291.05935874 -1.29597812 298.5625 -4.1875 C300.16325452 -4.30932734 301.76966137 -4.36296598 303.375 -4.375 C304.22707031 -4.38917969 305.07914063 -4.40335937 305.95703125 -4.41796875 C308.84585402 -4.1624357 310.88097429 -3.27257788 313.5625 -2.1875 C315.14806453 -1.72608884 316.74255172 -1.29445568 318.34375 -0.890625 C319.25672852 -0.65730469 320.16970703 -0.42398437 321.11035156 -0.18359375 C322.08456055 0.06261719 323.05876953 0.30882812 324.0625 0.5625 C330.8432137 2.29665418 337.59435435 4.08299429 344.30517578 6.07128906 C374.34466015 14.95151054 406.28709412 21.32725103 437.5625 23.8125 C438.80128906 23.92207031 440.04007813 24.03164063 441.31640625 24.14453125 C495.44404176 28.17588444 563.3311709 24.28599637 612 -2.5625 C616.18456584 -4.47124933 619.11964873 -5.23936711 623.5625 -4.1875 C640.49352099 2.35000156 655.69837556 14.32315696 669.5625 25.8125 C670.16078613 26.30782227 670.75907227 26.80314453 671.37548828 27.31347656 C678.79195515 33.48896444 685.85427407 39.86421827 692.5625 46.8125 C695.28686285 49.5551779 698.03245823 52.27439462 700.796875 54.9765625 C707.87743257 61.92585018 714.42473426 69.0037195 720.5625 76.8125 C721.42007296 77.83724117 722.28091687 78.85925138 723.14453125 79.87890625 C740.77977699 100.93467539 755.76245014 125.14231626 767.62451172 149.87597656 C768.5520953 151.79101899 769.50923215 153.68871792 770.47265625 155.5859375 C780.39379484 175.42821468 783.12969584 197.15715262 776.33740234 218.56689453 C770.27729335 236.12860927 762.29005516 254.89228234 749.08203125 268.2578125 C747.07287261 270.29500591 745.21265973 272.35207169 743.3515625 274.51953125 C739.15508053 279.35270131 734.6601463 283.86146679 730.125 288.375 C729.31740234 289.18646484 728.50980469 289.99792969 727.67773438 290.83398438 C722.80247228 295.70138948 717.8173194 300.35835175 712.5625 304.8125 C711.92675049 305.35495361 711.29100098 305.89740723 710.63598633 306.45629883 C676.0113313 335.81037484 637.4353779 358.77562771 594.5625 373.8125 C593.59062744 374.15498779 592.61875488 374.49747559 591.61743164 374.8503418 C541.28793314 392.1496954 487.4180578 390.58493532 436.96972656 375.51416016 C434.31107563 374.73921464 431.63822363 374.03193832 428.9609375 373.32421875 C424.36845693 372.0781471 419.97768075 370.57747672 415.5625 368.8125 C414.50724121 368.40572021 414.50724121 368.40572021 413.43066406 367.99072266 C400.96763039 363.1660627 388.82808708 357.70596404 376.75 352 C376.02032013 351.65531677 375.29064026 351.31063354 374.53884888 350.95550537 C367.16798132 347.46814973 359.81510093 343.94636497 352.4921875 340.359375 C320.70639104 324.25611869 320.70639104 324.25611869 286.21362305 326.28442383 C269.1391051 332.41265924 252.92472594 340.56547424 236.7868042 348.78128052 C223.65104808 355.45117926 210.25610396 361.20763956 196.55810547 366.62475586 C194.64105295 367.38485859 192.72813713 368.15553236 190.82080078 368.93969727 C185.67421413 371.05173526 180.5624001 372.81971839 175.1875 374.25 C174.43218994 374.45536377 173.67687988 374.66072754 172.89868164 374.87231445 C164.57174545 377.11650765 156.21142932 379.25109008 147.82592773 381.265625 C146.39744584 381.6107657 144.97189105 381.96848557 143.55102539 382.34375 C135.87343368 384.2592639 127.98774146 384.7738207 120.125 385.4375 C119.36118011 385.50253723 118.59736023 385.56757446 117.81039429 385.63458252 C91.03507959 387.88752162 63.84683588 386.93539881 37.5625 380.8125 C36.81597168 380.64524414 36.06944336 380.47798828 35.30029297 380.30566406 C-1.63409193 371.97593947 -36.35275022 355.26357535 -67.4375 333.8125 C-68.09282715 333.36277832 -68.7481543 332.91305664 -69.42333984 332.44970703 C-97.57274536 313.03404237 -126.97426301 289.36785224 -147.4375 261.8125 C-147.94925781 261.12929688 -148.46101563 260.44609375 -148.98828125 259.7421875 C-159.61263914 244.67908171 -167.11480981 227.3731181 -171.3125 209.5 C-171.5280957 208.59290283 -171.74369141 207.68580566 -171.96582031 206.7512207 C-174.00903756 197.46271442 -173.87598023 188.96218096 -171.875 179.6875 C-171.69936523 178.86983154 -171.52373047 178.05216309 -171.34277344 177.2097168 C-169.42245697 168.8870007 -166.19965909 161.44567253 -162.4375 153.8125 C-161.79916087 152.48322572 -161.16114225 151.15379748 -160.5234375 149.82421875 C-158.56379142 145.78374185 -156.51665615 141.79257047 -154.4375 137.8125 C-154.12683594 137.21099121 -153.81617188 136.60948242 -153.49609375 135.98974609 C-143.56929301 116.95126371 -131.01510416 98.43208104 -117.4375 81.8125 C-116.71949219 80.905 -116.00148438 79.9975 -115.26171875 79.0625 C-110.22748978 72.76747835 -104.86191 66.83917262 -99.359375 60.95703125 C-96.74848405 58.16317369 -94.21396481 55.30808674 -91.6875 52.4375 C-88.440997 48.81008961 -85.04353987 45.58397074 -81.32421875 42.44921875 C-79.4880395 40.85634275 -77.81080967 39.18737844 -76.125 37.4375 C-71.56236427 32.82382807 -66.52308095 28.828903 -61.4375 24.8125 C-60.82616211 24.32475098 -60.21482422 23.83700195 -59.58496094 23.33447266 C-48.68575814 14.66649624 -37.33934118 7.0335175 -25.4375 -0.1875 C-24.47070312 -0.77917969 -23.50390625 -1.37085938 -22.5078125 -1.98046875 C-14.68771429 -6.53973356 -7.46690621 -3.67028437 0 0 Z " fill="#313131" transform="translate(464.4375,420.1875)"/>
<path d="M0 0 C5.70642899 5.34449904 9.02265216 11.94699112 9.8125 19.6875 C8.73404196 33.27607131 0.4142031 43.92392724 -9.5 52.625 C-32.31680923 71.60858528 -59.90074659 85.9865328 -87.5 96.625 C-88.91853271 97.17583252 -88.91853271 97.17583252 -90.36572266 97.73779297 C-105.50127041 103.55728054 -120.66623725 108.14510846 -136.5 111.625 C-137.47888184 111.84639648 -138.45776367 112.06779297 -139.46630859 112.29589844 C-200.20757496 125.83814836 -265.24892669 125.56375493 -326.5 116.625 C-327.56798828 116.47305176 -328.63597656 116.32110352 -329.73632812 116.16455078 C-341.72336951 114.43381172 -353.48474429 112.06538257 -365.25 109.1875 C-366.39235107 108.91123779 -367.53470215 108.63497559 -368.71166992 108.3503418 C-389.89047515 102.97541187 -389.89047515 102.97541187 -395.5 95.625 C-396.76155717 91.84032848 -397.01582198 89.62262033 -396.5 85.625 C-394.55059898 82.27618572 -392.10003445 79.48600445 -389.5 76.625 C-388.52160156 75.5421875 -388.52160156 75.5421875 -387.5234375 74.4375 C-345.22480973 30.07938848 -279.33762696 5.42152764 -221.5 -9.625 C-220.23663818 -9.95443604 -218.97327637 -10.28387207 -217.67163086 -10.62329102 C-158.59718307 -25.72889189 -51.93504594 -41.64421276 0 0 Z " fill="#313131" transform="translate(1170.5,297.375)"/>
<path d="M0 0 C2.29415599 0.25494185 4.58842379 0.50887989 6.8828125 0.76171875 C15.72907181 1.76751904 24.4671101 2.77778712 33.05859375 5.19140625 C36.82375734 6.22645122 40.6228246 7.04490572 44.4375 7.875 C46.01442669 8.22740054 47.59124773 8.58027413 49.16796875 8.93359375 C52.26890301 9.62552746 55.37411066 10.28080457 58.48828125 10.91015625 C85.012667 16.50052255 111.58939952 26.31567077 136 38 C137.02947754 38.48936035 138.05895508 38.9787207 139.11962891 39.48291016 C165.55407035 52.1384926 191.82735708 66.62132501 214 86 C214.87011719 86.74894531 215.74023438 87.49789062 216.63671875 88.26953125 C232.66008293 102.32889563 232.66008293 102.32889563 233.3125 109.375 C232.88272108 114.36043548 231.45938053 116.72127931 227.72607422 119.99243164 C217.22756108 127.72387294 202.34856261 129.45561578 189.875 132.0625 C188.84143372 132.28099609 187.80786743 132.49949219 186.74298096 132.72460938 C167.89841594 136.68356075 149.17767824 139.4040502 130 141 C128.1120874 141.16918945 128.1120874 141.16918945 126.18603516 141.34179688 C70.80738619 146.24371735 10.59546328 143.79553641 -43 128 C-44.13260254 127.67660645 -45.26520508 127.35321289 -46.43212891 127.02001953 C-63.21206148 122.20490844 -79.23363323 116.49727373 -95 109 C-95.93424805 108.55897949 -96.86849609 108.11795898 -97.83105469 107.66357422 C-123.95789633 95.2360827 -161.63343303 77.14900282 -172 48 C-174.19563296 40.20476619 -172.63111837 34.04596323 -169 27 C-164.90168992 20.42425489 -158.62772382 16.73202902 -152 13 C-151.22527344 12.55785156 -150.45054687 12.11570312 -149.65234375 11.66015625 C-134.06350615 3.72632508 -115.21793506 0.97918693 -98 -1 C-97.16678223 -1.10296387 -96.33356445 -1.20592773 -95.47509766 -1.31201172 C-63.85694404 -5.09901101 -31.54019845 -3.76346712 0 0 Z " fill="#313131" transform="translate(529,277)"/>
<path d="M0 0 C0.6604834 0.14195801 1.3209668 0.28391602 2.00146484 0.43017578 C24.27849263 5.43779488 46.44259259 14.09706024 64 29 C65.010625 29.763125 66.02125 30.52625 67.0625 31.3125 C79.84745273 43.00937165 86.33448656 57.13775373 87.24609375 74.2578125 C88.15778543 98.96597828 75.48281388 122.12875372 59 140 C49.19587924 150.29575341 39.26260207 160.30578169 28 169 C26.74411924 170.0285643 25.49180252 171.06148865 24.2421875 172.09765625 C20.19968642 175.44742031 16.11812612 178.74368852 12 182 C11.39269043 182.48162598 10.78538086 182.96325195 10.15966797 183.45947266 C8.47960465 184.7716866 6.77824661 186.04745237 5.0625 187.3125 C4.10472656 188.03050781 3.14695312 188.74851562 2.16015625 189.48828125 C-2.08469016 191.51888145 -5.3846898 192.03860099 -10 191 C-13.30717258 189.24662989 -16.03718303 186.98829609 -18.875 184.5625 C-19.66165039 183.91941895 -20.44830078 183.27633789 -21.25878906 182.61376953 C-22.81982528 181.3343106 -24.37348306 180.0457865 -25.91894531 178.74755859 C-27.63588944 177.3057606 -29.36574626 175.88766511 -31.1171875 174.48828125 C-33.7724496 172.35698037 -36.3881326 170.18419321 -39 168 C-39.49822266 167.59201172 -39.99644531 167.18402344 -40.50976562 166.76367188 C-56.05895692 154.02434665 -71.30916342 140.15788328 -82 123 C-82.35594238 122.44038574 -82.71188477 121.88077148 -83.07861328 121.30419922 C-94.78465426 102.74893516 -100.22901045 82.78654207 -95.875 60.92578125 C-89.65067387 40.11319075 -73.53265348 26.08805313 -55 16 C-42.47513621 9.31582136 -29.74282643 4.52824595 -16 1 C-15.22817383 0.78972168 -14.45634766 0.57944336 -13.66113281 0.36279297 C-8.73604344 -0.88565992 -5.0521167 -1.09434178 0 0 Z " fill="#313131" transform="translate(773,167)"/>
<path d="M0 0 C5.693376 5.10834238 10.14233917 9.87985685 10.74300385 17.84329224 C10.81908704 20.89720184 10.82871775 23.94514856 10.81738281 27 C10.82088745 28.16166687 10.82439209 29.32333374 10.82800293 30.52020264 C10.83679513 34.3546753 10.83097981 38.188963 10.82421875 42.0234375 C10.82556612 44.6909203 10.82750428 47.35839751 10.83001709 50.02587891 C10.833651 55.61427814 10.82887277 61.20262444 10.81933594 66.79101562 C10.80845247 73.24283148 10.81197845 79.6945209 10.82298875 86.14633369 C10.83207805 91.69555808 10.83333888 97.2447445 10.82811141 102.79397392 C10.82500073 106.10398653 10.82534808 109.41392703 10.83118439 112.72393799 C10.83626433 116.41500389 10.82851835 120.10582716 10.81738281 123.796875 C10.82143127 124.8879657 10.82547974 125.9790564 10.82965088 127.10321045 C10.77891717 136.18255094 9.05990999 142.81602376 2.55859375 149.3984375 C-4.48827974 154.68677836 -11.84261765 155.55448462 -20.44140625 154.3984375 C-26.24510602 152.87413789 -29.58830747 149.60874447 -33.1171875 144.88671875 C-37.1271787 137.35172055 -37.87894512 130.30888116 -37.82958984 121.87109375 C-37.8348468 120.75282196 -37.84010376 119.63455017 -37.84552002 118.48239136 C-37.85865763 114.80842874 -37.85000371 111.13490406 -37.83984375 107.4609375 C-37.84186627 104.89461179 -37.84477919 102.32828664 -37.84854126 99.76196289 C-37.85295619 94.39235407 -37.84684929 89.02290798 -37.83251953 83.65332031 C-37.81619597 77.46558075 -37.82148561 71.27813785 -37.83799875 65.09040546 C-37.85330847 59.11189529 -37.8516177 53.13352899 -37.84285355 47.15499878 C-37.84085773 44.62254799 -37.84328901 42.09008959 -37.85029221 39.55764771 C-37.85794319 36.01349061 -37.84625061 32.46989661 -37.82958984 28.92578125 C-37.83566254 27.88759247 -37.84173523 26.84940369 -37.84799194 25.77975464 C-37.77777143 17.68307868 -36.71317579 10.04914177 -30.94140625 3.9609375 C-30.0596875 3.00380859 -30.0596875 3.00380859 -29.16015625 2.02734375 C-22.50388271 -4.28098821 -7.63917301 -5.37218651 0 0 Z " fill="#FDFDFD" transform="translate(1041.44140625,1068.6015625)"/>
<path d="M0 0 C6.40876939 3.68895019 10.17710197 8.71489844 12.13969994 15.82678604 C13.00485634 20.27373421 12.84785697 24.78580478 12.8371582 29.30029297 C12.84226913 30.41827271 12.84738007 31.53625244 12.85264587 32.68811035 C12.86651196 36.37285765 12.86558727 40.05741726 12.86328125 43.7421875 C12.86716987 46.31137155 12.87150489 48.88055497 12.87626648 51.44973755 C12.88372234 56.83126178 12.88358096 62.21271368 12.87817383 67.59423828 C12.87213724 73.79669238 12.88444218 79.99891945 12.9057439 86.20133483 C12.92554619 92.18943728 12.92852626 98.17742162 12.92500877 104.16556168 C12.92552112 106.70359963 12.93074263 109.24164128 12.94082069 111.77965927 C12.95320098 115.33358843 12.94638321 118.88699672 12.93481445 122.44091797 C12.94628006 124.00291428 12.94628006 124.00291428 12.95797729 125.59646606 C12.89846534 133.89669642 11.43101387 141.745831 6.18359375 148.42578125 C0.97630849 153.48249441 -4.91311627 155.31368154 -12.0625 155.5625 C-19.63579375 155.22432707 -24.5617142 153.2799534 -29.75 147.75 C-35.69719938 140.86556289 -35.87412807 132.82479651 -35.82568359 124.203125 C-35.83094055 123.04437866 -35.83619751 121.88563232 -35.84161377 120.69177246 C-35.85477159 116.87770947 -35.84609021 113.06406693 -35.8359375 109.25 C-35.83795944 106.59016404 -35.84086769 103.93034063 -35.84463501 101.27050781 C-35.85008032 95.70242799 -35.84293329 90.13446786 -35.82861328 84.56640625 C-35.81228902 78.14520804 -35.81757841 71.72429569 -35.8340925 65.3031044 C-35.84774246 59.77247816 -35.84960995 54.24193756 -35.84177649 48.7112999 C-35.83711916 45.41575421 -35.83761352 42.12037095 -35.84638596 38.8248291 C-35.85402464 35.14864926 -35.84236137 31.47301438 -35.82568359 27.796875 C-35.83175629 26.71611694 -35.83782898 25.63535889 -35.84408569 24.52185059 C-35.78548603 17.53146931 -35.24536723 11.38261191 -30.60546875 5.79296875 C-21.22169791 -1.81399341 -11.78790732 -5.2786998 0 0 Z " fill="#FDFDFD" transform="translate(519.4375,1068)"/>
<path d="M0 0 C6.69340734 3.63921761 9.86988593 8.14657955 12.79971313 15.02801514 C14.1024343 19.87333965 14.04497014 24.4614127 14.04052734 29.45800781 C14.04724457 30.54497452 14.05396179 31.63194122 14.06088257 32.75184631 C14.07985626 36.33981925 14.08378664 39.92760503 14.0859375 43.515625 C14.0923664 46.01658199 14.09909483 48.51753823 14.10610962 51.01849365 C14.11808121 56.26055103 14.12187642 61.50256114 14.12060547 66.74462891 C14.11953813 72.11616881 14.13360295 77.48742078 14.16162109 82.85888672 C14.19502478 89.35624669 14.2087146 95.85334831 14.20738602 102.35079193 C14.20973971 104.82102673 14.21855007 107.29126443 14.23405075 109.76145172 C14.25374454 113.22440419 14.24785823 116.68644552 14.23583984 120.14941406 C14.24707886 121.16066849 14.25831787 122.17192291 14.26989746 123.21382141 C14.19984488 131.19590531 12.16347724 137.54003794 8.0625 144.375 C2.14622511 149.97147625 -4.87889006 152.96542701 -13.03125 152.84375 C-19.63853841 152.0062064 -25.0760752 148.66396364 -29.25 143.5625 C-33.17507341 137.97596086 -35.36136894 133.72829474 -35.39717102 126.81416321 C-35.40432632 125.86245743 -35.41148163 124.91075165 -35.41885376 123.9302063 C-35.42154266 122.89274261 -35.42423157 121.85527893 -35.42700195 120.78637695 C-35.43357315 119.68834244 -35.44014435 118.59030792 -35.44691467 117.45899963 C-35.46663493 113.82292614 -35.47830774 110.18689393 -35.48828125 106.55078125 C-35.49235678 105.30797079 -35.4964323 104.06516033 -35.50063133 102.78468895 C-35.51933754 96.88416072 -35.53390409 90.98364557 -35.5422433 85.08309489 C-35.55200504 78.28954687 -35.57830098 71.49632558 -35.61874419 64.7028926 C-35.65264104 58.80506524 -35.66439636 52.90731714 -35.66844749 47.00938988 C-35.67331274 44.50761894 -35.68492487 42.00585148 -35.70348549 39.50414467 C-35.72788265 35.99769864 -35.72691023 32.49210096 -35.7199707 28.9855957 C-35.73278076 27.95825317 -35.74559082 26.93091064 -35.75878906 25.87243652 C-35.70037056 17.74709613 -33.54156284 12.06724317 -29.125 5.3125 C-20.38657639 -3.04599215 -10.99523485 -4.85962232 0 0 Z " fill="#FCFCFC" transform="translate(864.25,909.4375)"/>
<path d="M0 0 C4.92486978 5.20629092 8.29732593 11.72502984 8.33467102 18.93385315 C8.34182632 19.88273911 8.34898163 20.83162506 8.35635376 21.80926514 C8.35904266 22.84875305 8.36173157 23.88824097 8.36450195 24.95922852 C8.37435875 26.60365181 8.37435875 26.60365181 8.38441467 28.28129578 C8.40416229 31.91799995 8.41581526 35.55466273 8.42578125 39.19140625 C8.42985678 40.43388563 8.4339323 41.67636501 8.43813133 42.95649529 C8.45684854 48.85756294 8.47141051 54.75861747 8.4797433 60.65970761 C8.48949628 67.45325597 8.51576447 74.24647682 8.55624419 81.0399099 C8.5901673 86.93719776 8.60189873 92.83440645 8.60594749 98.73179436 C8.61080984 101.23273879 8.62241368 103.73367981 8.64098549 106.23456001 C8.66541643 109.74330552 8.66440381 113.25120467 8.6574707 116.76000977 C8.67028076 117.78532806 8.68309082 118.81064636 8.69628906 119.86703491 C8.63865999 127.90597726 6.5707896 134.18757569 2.5625 141.125 C-4.39591646 147.53406779 -11.22318156 148.86534451 -20.515625 148.78125 C-26.13284445 147.98259321 -30.82565741 145.29934259 -34.8125 141.3125 C-38.08695344 135.704422 -40.92528851 130.30672886 -40.95967102 123.72911072 C-40.96682632 122.78863892 -40.97398163 121.84816711 -40.98135376 120.87919617 C-40.98404266 119.84905899 -40.98673157 118.81892181 -40.98950195 117.75756836 C-40.99607315 116.67103973 -41.00264435 115.58451111 -41.00941467 114.46505737 C-41.02916175 110.86081881 -41.04081517 107.25662201 -41.05078125 103.65234375 C-41.05485678 102.42089693 -41.0589323 101.18945011 -41.06313133 99.92068672 C-41.08184842 94.0719443 -41.09641039 88.22321826 -41.1047433 82.37445158 C-41.11449599 75.64146242 -41.14076342 68.90880375 -41.18124419 62.17593092 C-41.21516951 56.33095511 -41.22689891 50.486089 -41.23094749 44.64102364 C-41.23580952 42.1624077 -41.24741245 39.68379518 -41.26598549 37.20524406 C-41.29041933 33.72762928 -41.28940329 30.2508683 -41.2824707 26.77319336 C-41.29528076 25.7572258 -41.30809082 24.74125824 -41.32128906 23.69450378 C-41.2518183 14.08789175 -38.56148188 6.23020643 -31.8125 -0.6875 C-22.1831392 -9.38498717 -9.99699865 -5.99819919 0 0 Z " fill="#FCFCFC" transform="translate(698.8125,912.6875)"/>
<path d="M0 0 C6.71679776 4.57963484 9.65134199 9.24767245 12 17 C12.52012896 20.73490415 12.53863164 24.39938592 12.50170898 28.16601562 C12.50711197 29.2340593 12.51251495 30.30210297 12.51808167 31.4025116 C12.53050465 34.90404683 12.51411997 38.40474945 12.49609375 41.90625 C12.49624889 44.3566492 12.49774029 46.80704864 12.50050354 49.25744629 C12.50188467 54.38154001 12.48937697 59.50535285 12.46655273 64.62939453 C12.43816952 71.17940674 12.44090954 77.72895262 12.45364285 84.27899933 C12.46061602 89.33550969 12.45279195 94.39191331 12.44038582 99.44841003 C12.43588727 101.86280406 12.43552047 104.2772096 12.43945122 106.69160461 C12.44237946 110.07263461 12.42577873 113.45303428 12.40405273 116.83398438 C12.40855438 117.82025314 12.41305603 118.80652191 12.41769409 119.82267761 C12.3184055 129.17816639 10.65842352 137.45205996 4 144.3046875 C-2.24164803 149.59545946 -8.76325832 150.79634071 -16.84765625 150.50390625 C-22.98264491 149.52322033 -26.84252759 146.52480069 -30.8125 141.87890625 C-36.61069301 133.83670104 -37.29911134 125.86553278 -37.2746582 116.22875977 C-37.27976913 115.178909 -37.28488007 114.12905823 -37.29014587 113.0473938 C-37.30398556 109.5953391 -37.30308943 106.1434853 -37.30078125 102.69140625 C-37.304671 100.28059312 -37.30900625 97.86978068 -37.31376648 95.45896912 C-37.32121641 90.41297175 -37.32094608 85.36704438 -37.31567383 80.32104492 C-37.30987816 73.86731544 -37.32681882 67.41387284 -37.3500185 60.96019077 C-37.36477692 55.98351884 -37.3656247 51.00691569 -37.36250877 46.03022575 C-37.36302083 43.65127939 -37.36823679 41.27232906 -37.37832069 38.89340401 C-37.39070962 35.56229316 -37.38387846 32.23173727 -37.37231445 28.90063477 C-37.37995819 27.92633011 -37.38760193 26.95202545 -37.39547729 25.94819641 C-37.32359201 16.54066771 -35.27574439 9.54989354 -28.76953125 2.66015625 C-21.03201625 -4.59910175 -9.05458812 -5.29607985 0 0 Z " fill="#FCFCFC" transform="translate(1207,873)"/>
<path d="M0 0 C6.92748325 4.01479143 10.5671149 8.83094922 12.95985985 16.39445305 C14.01878851 20.86296599 13.97068477 25.26594478 13.93481445 29.83813477 C13.93846512 30.88973785 13.94211578 31.94134094 13.94587708 33.02481079 C13.95393615 36.47634386 13.94041166 39.92740061 13.92578125 43.37890625 C13.92526213 45.79068501 13.92578185 48.20246421 13.92729187 50.61424255 C13.92720236 55.6585017 13.91681461 60.70260034 13.89868164 65.74682617 C13.87598331 72.20170341 13.87545495 78.6563466 13.88219929 85.11125278 C13.88554575 90.08788623 13.87889656 95.06446664 13.86907005 100.04109001 C13.8652304 102.42085429 13.8640647 104.80062447 13.8656559 107.18039131 C13.8660281 110.50912787 13.85336309 113.8375679 13.8371582 117.16625977 C13.83963562 118.14258865 13.84211304 119.11891754 13.84466553 120.12483215 C13.77039853 129.71778482 12.06666103 137.57966783 5.5625 144.9375 C-0.72613283 150.56721358 -6.83460402 151.85062627 -15.1640625 151.453125 C-19.91789908 150.70431065 -22.91858471 149.1693243 -26.4375 145.9375 C-27.00082031 145.42960938 -27.56414062 144.92171875 -28.14453125 144.3984375 C-35.26745917 137.0848716 -35.88598048 127.505186 -35.84155273 117.77148438 C-35.84841599 116.7034407 -35.85527924 115.63539703 -35.86235046 114.5349884 C-35.88052812 111.03360387 -35.87679422 107.53267121 -35.87109375 104.03125 C-35.87565938 101.58084977 -35.88096609 99.13045082 -35.88697815 96.68005371 C-35.89589117 91.55601788 -35.89350605 86.43213808 -35.88354492 81.30810547 C-35.87204911 74.75803409 -35.89228611 68.20850133 -35.92146206 61.65850067 C-35.93984925 56.60199594 -35.93952666 51.54561975 -35.93382454 46.48908997 C-35.93367168 44.07468408 -35.93968648 41.66026928 -35.95211601 39.24589539 C-35.96707386 35.86476265 -35.9563132 32.48461845 -35.93920898 29.10351562 C-35.94887695 28.11724686 -35.95854492 27.13097809 -35.96850586 26.11482239 C-35.87918102 17.63783583 -33.94416809 10.3067559 -28.0625 4 C-19.97883628 -3.20057441 -10.00537658 -4.5864283 0 0 Z " fill="#FCFCFC" transform="translate(352.4375,872.0625)"/>
<path d="M0 0 C4.38958297 4.00629298 7.61149849 8.34958991 8.25726891 14.4173317 C8.26062059 15.2638316 8.26397228 16.1103315 8.26742554 16.98248291 C8.27595551 17.96080582 8.28448547 18.93912872 8.29327393 19.94709778 C8.29236755 21.0090184 8.29146118 22.07093903 8.29052734 23.16503906 C8.29724457 24.29248032 8.30396179 25.41992157 8.31088257 26.58152771 C8.32988358 30.30960496 8.33378805 34.03750233 8.3359375 37.765625 C8.3423646 40.36008783 8.34909289 42.95454993 8.35610962 45.54901123 C8.36808813 50.98956286 8.37187561 56.43004326 8.37060547 61.87060547 C8.36940551 68.14237385 8.39048124 74.41379729 8.4220928 80.68547845 C8.45149142 86.7355215 8.45857896 92.78537866 8.45738602 98.83550262 C8.45974223 101.40146034 8.46856685 103.96742075 8.48405075 106.53333282 C8.50371075 110.12830453 8.49787127 113.72239604 8.48583984 117.31738281 C8.49707886 118.37120651 8.50831787 119.42503021 8.51989746 120.51078796 C8.44375567 129.49282232 5.94491555 136.84507186 -0.25390625 143.4921875 C-6.09171879 148.53334106 -12.56427705 149.73396974 -20.13671875 149.4453125 C-26.76424191 148.41456538 -31.61960704 144.22122804 -35.6534338 139.021492 C-40.22099651 132.16457588 -40.43900673 124.55308212 -40.40405273 116.56445312 C-40.41091599 115.45593491 -40.41777924 114.34741669 -40.42485046 113.20530701 C-40.4430586 109.56382209 -40.43928977 105.9227704 -40.43359375 102.28125 C-40.43815795 99.73734396 -40.44346424 97.19343916 -40.44947815 94.64953613 C-40.4583972 89.32701009 -40.456235 84.00464019 -40.44604492 78.68212891 C-40.43456136 72.54885729 -40.44865299 66.41602284 -40.4754414 60.28280878 C-40.50034613 54.3566388 -40.50276374 48.43060363 -40.49632454 42.50437927 C-40.49617151 39.99425021 -40.50220053 37.48411265 -40.51461601 34.97401428 C-40.52954756 31.46086382 -40.51883215 27.94866813 -40.50170898 24.43554688 C-40.51137695 23.40670883 -40.52104492 22.37787079 -40.53100586 21.31785583 C-40.4523494 13.58354543 -38.88047733 7.36731857 -33.78125 1.40625 C-33.0284375 0.7771875 -32.275625 0.148125 -31.5 -0.5 C-30.7471875 -1.1496875 -29.994375 -1.799375 -29.21875 -2.46875 C-20.69248012 -8.3530771 -7.88711799 -5.69070538 0 0 Z " fill="#FDFDFD" transform="translate(864,1227)"/>
<path d="M0 0 C4.5607381 4.00026185 7.58756002 9.40803356 8.28008842 15.43930817 C8.39654453 18.3555892 8.41677293 21.25815603 8.40405273 24.17675781 C8.41091599 25.28177139 8.41777924 26.38678497 8.42485046 27.52528381 C8.44310881 31.16802934 8.43928116 34.81034364 8.43359375 38.453125 C8.4381569 40.99509826 8.44346288 43.53707029 8.44947815 46.07904053 C8.4584081 51.40512687 8.45622355 56.73105726 8.44604492 62.05712891 C8.43458398 68.18918341 8.44861015 74.32079951 8.4754414 80.45279622 C8.50038456 86.37788725 8.50275622 92.30284368 8.49632454 98.2279892 C8.49617169 100.73646523 8.50218558 103.24494984 8.51461601 105.75339508 C8.52958884 109.27114368 8.51880053 112.78794395 8.50170898 116.30566406 C8.51137695 117.33045364 8.52104492 118.35524323 8.53100586 119.41108704 C8.4527473 127.15115064 7.30858704 135.17072798 2.08887386 141.21188736 C-4.50233444 147.41046992 -11.06785899 149.6685415 -20.06640625 149.41015625 C-26.8996294 148.45477885 -31.26741073 144.15139811 -35.67578125 139.13671875 C-40.05247182 132.07462511 -40.43868941 125.57826729 -40.40405273 117.47851562 C-40.41091599 116.34903 -40.41777924 115.21954437 -40.42485046 114.05583191 C-40.44308398 110.3391751 -40.43928609 106.62294174 -40.43359375 102.90625 C-40.43815676 100.31367862 -40.4434627 97.72110845 -40.44947815 95.12854004 C-40.45840221 89.70168554 -40.45622875 84.27499245 -40.44604492 78.84814453 C-40.43456092 72.59047701 -40.44865158 66.33323795 -40.4754414 60.07562685 C-40.50032748 54.03463251 -40.50276694 47.99385755 -40.49632454 41.95280457 C-40.49617137 39.39160957 -40.50221218 36.8304063 -40.51461601 34.26924133 C-40.5295258 30.68633304 -40.51884797 27.10436369 -40.50170898 23.52148438 C-40.51137695 22.46877853 -40.52104492 21.41607269 -40.53100586 20.33146667 C-40.4543793 12.66508373 -38.91516342 7.27955885 -33.78125 1.50390625 C-33.0284375 0.86324219 -32.275625 0.22257812 -31.5 -0.4375 C-30.7471875 -1.09621094 -29.994375 -1.75492188 -29.21875 -2.43359375 C-20.72792861 -8.42799406 -7.90871243 -5.61740322 0 0 Z " fill="#FDFDFD" transform="translate(704,1227)"/>
<path d="M0 0 C8.09753395 4.92203044 12.83829638 9.56088357 15.1875 18.9375 C15.94579151 25.81427047 15.72681138 32.78022693 15.68359375 39.6875 C15.68374896 41.71191459 15.68524163 43.73632948 15.68800354 45.76074219 C15.68938321 49.99036906 15.67690197 54.21965506 15.65405273 58.44921875 C15.62566972 63.84911261 15.6284114 69.24844075 15.64114285 74.64837646 C15.64812427 78.82475549 15.64028265 83.00100561 15.62788582 87.17736816 C15.62339524 89.16751612 15.6230134 91.15767803 15.62695122 93.14782715 C15.65359436 118.45764336 15.65359436 118.45764336 7.046875 127.2421875 C0.54699464 133.16854901 -4.45215942 133.64194795 -13.2109375 133.3828125 C-20.60969568 132.46799858 -24.77634228 128.45807316 -29.48828125 122.9765625 C-33.49219617 116.81124219 -34.25704228 111.68705604 -34.23242188 104.48901367 C-34.24089142 103.56771164 -34.24936096 102.64640961 -34.25808716 101.69718933 C-34.28139114 98.66647343 -34.28248076 95.6362673 -34.28125 92.60546875 C-34.28835632 90.48708394 -34.29605601 88.36870104 -34.30432129 86.25032043 C-34.31775154 81.81453093 -34.31934171 77.37891935 -34.31347656 72.94311523 C-34.30758662 67.27729054 -34.3381503 61.61232454 -34.37859344 55.94666576 C-34.40452927 51.57212274 -34.40734241 47.19778474 -34.40370178 42.82317543 C-34.40538799 40.73531248 -34.41498208 38.64743954 -34.43284607 36.55965233 C-34.60034327 14.56179238 -34.60034327 14.56179238 -26.4609375 5.24609375 C-25.33558594 4.31990234 -25.33558594 4.31990234 -24.1875 3.375 C-23.05441406 2.41400391 -23.05441406 2.41400391 -21.8984375 1.43359375 C-15.91598535 -2.85719122 -6.75556619 -1.88269877 0 0 Z " fill="#FCFCFC" transform="translate(862.8125,587.0625)"/>
<path d="M0 0 C6.94025945 4.06750215 12.04291295 10.46396378 14.45703125 18.12109375 C14.87157186 21.20929119 14.8778344 24.25746256 14.86108398 27.37011719 C14.86794724 28.27030579 14.87481049 29.17049438 14.88188171 30.09796143 C14.90010654 33.05896002 14.8963171 36.01942635 14.890625 38.98046875 C14.89519003 41.05161713 14.90049656 43.122764 14.9065094 45.19390869 C14.91543295 49.53135333 14.9130273 53.8686138 14.90307617 58.20605469 C14.89160881 63.74164431 14.91176788 69.27659389 14.94099331 74.81209946 C14.95941871 79.08974189 14.95904986 83.3672329 14.95335579 87.64490509 C14.95320324 89.68448024 14.95919254 91.72406608 14.97164726 93.76360321 C15.0954324 117.36392331 15.0954324 117.36392331 8.23828125 125.875 C7.48546875 126.47183594 6.73265625 127.06867188 5.95703125 127.68359375 C5.20421875 128.30363281 4.45140625 128.92367187 3.67578125 129.5625 C-2.9346669 134.20610706 -9.71877787 133.91258197 -17.54296875 133.12109375 C-20.81761411 131.99778508 -23.03083233 130.47771696 -25.54296875 128.12109375 C-26.105 127.61320313 -26.66703125 127.1053125 -27.24609375 126.58203125 C-36.68253363 116.91655157 -35.00126768 102.85693704 -34.9765625 90.37109375 C-34.9811304 88.34667792 -34.98643777 86.32226363 -34.9924469 84.29785156 C-35.00135045 80.06829502 -34.9989857 75.83892759 -34.98901367 71.609375 C-34.97751789 66.20940939 -34.99775921 60.81009714 -35.02693081 55.41021729 C-35.04533975 51.23384509 -35.04499115 47.0576282 -35.03929329 42.88122559 C-35.0391407 40.89106326 -35.0451329 38.90088998 -35.05758476 36.9107666 C-35.18074886 14.00530139 -35.18074886 14.00530139 -27.16796875 5.18359375 C-19.92237051 -1.80445953 -9.45457869 -3.26771153 0 0 Z " fill="#FCFCFC" transform="translate(692.54296875,586.87890625)"/>
<path d="M0 0 C7.4324511 4.29537758 11.15992074 9.7198028 13.5625 17.9375 C13.94976795 20.7371749 13.97411725 23.48286289 13.95068359 26.30615234 C13.95594055 27.10080399 13.96119751 27.89545563 13.96661377 28.71418762 C13.97971939 31.31747632 13.97110782 33.92014355 13.9609375 36.5234375 C13.96296135 38.348929 13.96587538 40.1744197 13.96963501 41.99990845 C13.97404594 45.81772594 13.96766859 49.63533217 13.95361328 53.453125 C13.93654651 58.32396008 13.94635451 63.19429822 13.96433067 68.06511497 C13.97522268 71.8331571 13.97169702 75.60108338 13.9639473 79.36912918 C13.96195897 81.16390671 13.96435602 82.95869507 13.97138596 84.75345993 C14.0429155 108.15055104 14.0429155 108.15055104 6.75 115.875 C6.10417969 116.58527344 5.45835938 117.29554688 4.79296875 118.02734375 C-0.1996665 122.3029981 -4.42730684 123.3521963 -10.9375 123.3125 C-12.2059375 123.32023438 -13.474375 123.32796875 -14.78125 123.3359375 C-21.28498338 122.62719732 -25.18155964 119.75343251 -29.4375 114.9375 C-34.50362002 108.27917083 -35.73984632 101.90118652 -35.7121582 93.66650391 C-35.71726913 92.870392 -35.72238007 92.07428009 -35.72764587 91.25404358 C-35.741466 88.64063857 -35.74059076 86.02749955 -35.73828125 83.4140625 C-35.74217252 81.58474633 -35.74650807 79.75543106 -35.75126648 77.92611694 C-35.75871253 74.09817573 -35.75844927 70.27032677 -35.75317383 66.44238281 C-35.74738325 61.55462977 -35.76430811 56.66725617 -35.7875185 51.77956581 C-35.802303 48.00299905 -35.8031211 44.22652267 -35.80000877 40.4499321 C-35.80051968 38.64873885 -35.80571374 36.84754024 -35.81582069 35.04637527 C-35.92617731 12.62930982 -35.92617731 12.62930982 -27.3046875 3.66796875 C-19.53968653 -3.52846521 -9.75166092 -4.4486429 0 0 Z " fill="#FCFCFC" transform="translate(1126.4375,584.0625)"/>
<path d="M0 0 C7.23910052 2.83812749 11.80621477 7.86696421 14.95385742 14.87670898 C17.45189733 22.61335827 16.8380138 30.99111172 16.8203125 39.03515625 C16.82488111 40.85682366 16.83018869 42.67848936 16.8361969 44.50015259 C16.84510202 48.30779038 16.84273505 52.11521815 16.83276367 55.92285156 C16.82128418 60.7768473 16.84148311 65.63011441 16.87068081 70.48401451 C16.88912165 74.24352544 16.8887346 78.00286435 16.88304329 81.76240921 C16.882891 83.55078782 16.88885801 85.33917879 16.90133476 87.12751389 C17.02917684 108.45468897 17.02917684 108.45468897 10.13671875 117.26171875 C9.22921875 117.96296875 8.32171875 118.66421875 7.38671875 119.38671875 C6.8453125 119.84949219 6.30390625 120.31226563 5.74609375 120.7890625 C-0.26498941 125.34788817 -6.32418981 125.18239122 -13.61328125 124.38671875 C-20.01816807 123.36751565 -23.55527507 119.9062914 -27.8515625 115.2265625 C-33.77022471 105.6858365 -33.05527934 94.83004174 -33.01171875 84.0078125 C-33.01374357 82.22762432 -33.0166584 80.44743695 -33.02041626 78.66725159 C-33.02481926 74.9513452 -33.01847341 71.23565634 -33.00439453 67.51977539 C-32.98729132 62.77668948 -32.99716387 58.03411254 -33.01511192 53.29104519 C-33.02599402 49.6199821 -33.0224834 45.9490381 -33.01472855 42.27797127 C-33.01273941 40.52981568 -33.01514018 38.78164899 -33.02216721 37.03350639 C-33.0898223 15.47980922 -33.0898223 15.47980922 -25.61328125 6.38671875 C-17.54733061 -0.44448398 -10.67777102 -2.50584462 0 0 Z " fill="#FCFCFC" transform="translate(428.61328125,582.61328125)"/>
<path d="M0 0 C6.31283541 3.76342111 12.39046581 8.39379405 14.80534363 15.59310913 C15.44635695 18.97276557 15.41449178 22.33288847 15.42700195 25.76025391 C15.43685875 26.93672485 15.43685875 26.93672485 15.44691467 28.13696289 C15.4666025 30.7293305 15.47830216 33.3216402 15.48828125 35.9140625 C15.49235678 36.80258282 15.4964323 37.69110313 15.50063133 38.60654831 C15.52147601 43.31240352 15.53578287 48.01822974 15.54516602 52.72412109 C15.55620796 57.56596176 15.59058676 62.40734002 15.63033772 67.24901772 C15.65658529 70.98787239 15.66486521 74.72661841 15.66844749 78.4655571 C15.67329492 80.24920132 15.68485585 82.03284129 15.70348549 83.81639481 C15.91156296 105.06315415 15.91156296 105.06315415 7.875 113.875 C3.04182869 118.53637612 -1.88355513 120.37753192 -8.5625 120.4375 C-16.16209016 120.24530805 -21.20819811 118.59632178 -26.5234375 113.10546875 C-31.9116933 106.44243048 -34.20929365 99.45518598 -34.15405273 90.93603516 C-34.16091599 90.1803978 -34.16777924 89.42476044 -34.17485046 88.64622498 C-34.19300353 86.17280758 -34.18929718 83.70003158 -34.18359375 81.2265625 C-34.18816152 79.49075111 -34.19346886 77.75494152 -34.19947815 76.01913452 C-34.20838704 72.38963452 -34.20601208 68.7603548 -34.19604492 65.13085938 C-34.18456609 60.50204454 -34.2047612 55.87399384 -34.23396206 51.24527931 C-34.25239608 47.66251879 -34.25201719 44.07993889 -34.24632454 40.49714279 C-34.24617216 38.79166976 -34.25214678 37.08618383 -34.26461601 35.38075638 C-34.33072117 24.85727405 -33.78838302 16.20395642 -27.9375 7.125 C-19.88061868 -0.93188132 -11.15768312 -3.16134355 0 0 Z " fill="#FBFBFB" transform="translate(1006.75,463.0625)"/>
<path d="M0 0 C7.47439647 4.62478281 11.63967849 10.74734359 13.875 19.16015625 C14.45613357 25.13170512 14.43933839 31.07131979 14.40625 37.06640625 C14.40895022 38.7993593 14.41283702 40.53231087 14.41784668 42.26525879 C14.42371687 45.88287903 14.41525944 49.50010202 14.39648438 53.11767578 C14.37369611 57.7307727 14.38683261 62.34293844 14.41077423 66.95600128 C14.42529972 70.53020106 14.42059548 74.10418382 14.41026306 77.6783905 C14.40761438 79.37827162 14.41079934 81.07817311 14.42018127 82.7780304 C14.46540789 93.27288319 13.8964124 101.92003355 8.0625 110.97265625 C2.02213172 117.01302453 -2.81890145 119.27157975 -11.375 119.53515625 C-18.78426585 119.4604828 -22.55543809 117.51782636 -27.8359375 112.55078125 C-33.75557627 106.25575075 -35.58372572 99.27836343 -35.51318359 90.8515625 C-35.51844055 90.06345184 -35.52369751 89.27534119 -35.52911377 88.46334839 C-35.54221467 85.88291033 -35.53361126 83.30309954 -35.5234375 80.72265625 C-35.52546109 78.91479373 -35.5283749 77.10693201 -35.53213501 75.29907227 C-35.53654494 71.51994006 -35.53017033 67.74102135 -35.51611328 63.96191406 C-35.4990222 59.13347883 -35.50887053 54.30554398 -35.52683067 49.47712708 C-35.53770457 45.74691034 -35.53420567 42.01681097 -35.5264473 38.28659058 C-35.52445525 36.50690653 -35.52686935 34.72721161 -35.53388596 32.94754028 C-35.54156011 30.45432567 -35.52981377 27.96190587 -35.51318359 25.46875 C-35.51925629 24.74332001 -35.52532898 24.01789001 -35.53158569 23.27047729 C-35.45611728 17.12025111 -34.06978768 11.73523759 -30.29296875 6.734375 C-21.62822503 -1.52020334 -11.67790373 -5.23072771 0 0 Z " fill="#FBFBFB" transform="translate(549.125,463.83984375)"/>
<path d="M0 0 C0.66 0.33 1.32 0.66 2 1 C-0.97 3.97 -3.94 6.94 -7 10 C-7 7 -7 7 -4.625 4.4375 C-3.75875 3.633125 -2.8925 2.82875 -2 2 C-1.34 1.34 -0.68 0.68 0 0 Z " fill="#DDDDDD" transform="translate(985,465)"/>
</svg>
